<svg xmlns="http://www.w3.org/2000/svg" viewBox="0 0 153 43">
  <defs>
    <style>
      .cls-1 {
        fill: #fff;
      }

      .cls-2 {
        fill: #2f2f2f;
        font-size: 6px;
        font-family: GothamPro, Gotham Pro;
      }
    </style>
  </defs>
  <g id="Group_73" data-name="Group 73" transform="translate(-319 -1827)">
    <rect id="Rectangle_81" data-name="Rectangle 81" class="cls-1" width="153" height="43" transform="translate(319 1827)"/>
    <text id="Доступно_на" data-name="Доступно на" class="cls-2" transform="translate(365 1840)"><tspan x="0" y="0">Доступно на</tspan></text>
    <g id="apple" transform="translate(306.882 1837.5)">
      <path id="XMLID_229_" d="M28.715,74.918c-1.683,2.921-.613,7.354,1.248,10.042.929,1.344,1.87,2.55,3.158,2.55h.074a3.9,3.9,0,0,0,1.466-.391,4.014,4.014,0,0,1,1.736-.412,3.775,3.775,0,0,1,1.653.4,3.5,3.5,0,0,0,1.583.38c1.451-.027,2.342-1.329,3.129-2.477A10.979,10.979,0,0,0,44.133,82.2l.006-.018a.163.163,0,0,0-.087-.2l-.012-.005a4.16,4.16,0,0,1-2.521-3.81,4.282,4.282,0,0,1,2.024-3.58l.016-.01a.163.163,0,0,0,.046-.229,4.709,4.709,0,0,0-3.7-2.012c-.105-.011-.214-.016-.323-.016a6.457,6.457,0,0,0-2.325.581,3.737,3.737,0,0,1-1.114.333,3.643,3.643,0,0,1-1.152-.337,5.582,5.582,0,0,0-2.03-.516H32.9A4.978,4.978,0,0,0,28.715,74.918Z" transform="translate(0 -67.599)"/>
      <path id="XMLID_230_" d="M153.316,0a4.546,4.546,0,0,0-3,1.54A4.259,4.259,0,0,0,149.236,4.7a.163.163,0,0,0,.149.141c.069.005.14.008.211.008a3.845,3.845,0,0,0,2.833-1.453A4.49,4.49,0,0,0,153.485.145.164.164,0,0,0,153.316,0Z" transform="translate(-113.414 0)"/>
    </g>
    <g id="g30" transform="translate(302.884 1819.293)">
      <path id="path14" d="M72.8,39.3H70.637l-1.183-3.716h-4.11L64.218,39.3h-2.1l4.072-12.65H68.7Zm-3.7-5.275-1.069-3.3q-.17-.506-.638-2.383h-.038q-.187.807-.6,2.383l-1.05,3.3Z" transform="translate(0 -0.1)"/>
      <path id="path16" d="M89.957,36.435A5.184,5.184,0,0,1,88.7,40.113a3.677,3.677,0,0,1-2.8,1.2,2.8,2.8,0,0,1-2.59-1.295h-.038v4.805H81.248V34.989q0-1.463-.075-3h1.782l.113,1.446h.038a3.606,3.606,0,0,1,5.771-.357A5.026,5.026,0,0,1,89.957,36.435Zm-2.065.074a3.755,3.755,0,0,0-.6-2.2,2.075,2.075,0,0,0-1.764-.9,2.108,2.108,0,0,0-1.36.5,2.306,2.306,0,0,0-.8,1.305,2.653,2.653,0,0,0-.094.618v1.521a2.437,2.437,0,0,0,.61,1.681,2.023,2.023,0,0,0,1.586.685,2.075,2.075,0,0,0,1.782-.882A3.882,3.882,0,0,0,87.893,36.509Z" transform="translate(-6.689 -1.907)"/>
      <path id="path18" d="M106.123,36.435a5.18,5.18,0,0,1-1.259,3.678,3.674,3.674,0,0,1-2.8,1.2A2.794,2.794,0,0,1,99.48,40.02h-.038v4.805H97.415V34.989q0-1.463-.075-3h1.782l.113,1.446h.038a3.607,3.607,0,0,1,5.772-.357,5.04,5.04,0,0,1,1.078,3.36Zm-2.065.074a3.755,3.755,0,0,0-.6-2.2,2.072,2.072,0,0,0-1.763-.9,2.11,2.11,0,0,0-1.361.5,2.3,2.3,0,0,0-.8,1.305,2.7,2.7,0,0,0-.094.618v1.521a2.445,2.445,0,0,0,.608,1.681,2.027,2.027,0,0,0,1.587.685,2.075,2.075,0,0,0,1.782-.882,3.882,3.882,0,0,0,.639-2.328Z" transform="translate(-12.363 -1.907)"/>
      <path id="path20" d="M124.7,35.653a3.371,3.371,0,0,1-1.124,2.627,4.98,4.98,0,0,1-3.446,1.107,6.032,6.032,0,0,1-3.279-.788l.47-1.689a5.555,5.555,0,0,0,2.93.808,2.77,2.77,0,0,0,1.784-.517,1.689,1.689,0,0,0,.637-1.382,1.762,1.762,0,0,0-.526-1.3,4.887,4.887,0,0,0-1.745-.978q-3.322-1.239-3.321-3.627a3.21,3.21,0,0,1,1.164-2.556,4.59,4.59,0,0,1,3.1-1,6.14,6.14,0,0,1,2.871.6l-.507,1.652a4.981,4.981,0,0,0-2.421-.582,2.451,2.451,0,0,0-1.669.526,1.5,1.5,0,0,0-.507,1.145,1.546,1.546,0,0,0,.581,1.239,6.564,6.564,0,0,0,1.84.976,6.244,6.244,0,0,1,2.4,1.538,3.213,3.213,0,0,1,.768,2.193Z" transform="translate(-19.213 0)"/>
      <path id="path22" d="M136.267,32.38h-2.234v4.429q0,1.69,1.183,1.689a3.6,3.6,0,0,0,.9-.094l.056,1.539a4.592,4.592,0,0,1-1.576.224,2.432,2.432,0,0,1-1.877-.732,3.6,3.6,0,0,1-.676-2.459v-4.6h-1.331V30.857h1.331v-1.67l1.991-.6v2.271h2.234Z" transform="translate(-24.077 -0.779)"/>
      <path id="path24" d="M149.969,36.473a5,5,0,0,1-1.2,3.453,4.29,4.29,0,0,1-3.342,1.389,4.079,4.079,0,0,1-3.2-1.332,4.85,4.85,0,0,1-1.192-3.359,4.955,4.955,0,0,1,1.229-3.472,4.254,4.254,0,0,1,3.312-1.352,4.166,4.166,0,0,1,3.228,1.333A4.8,4.8,0,0,1,149.969,36.473Zm-2.1.066a4.1,4.1,0,0,0-.544-2.164,2,2,0,0,0-1.819-1.091,2.032,2.032,0,0,0-1.858,1.091,4.182,4.182,0,0,0-.544,2.2,4.1,4.1,0,0,0,.544,2.164,2.071,2.071,0,0,0,3.66-.019A4.118,4.118,0,0,0,147.867,36.538Z" transform="translate(-27.7 -1.908)"/>
      <path id="path26" d="M162.312,33.769a3.519,3.519,0,0,0-.639-.056,1.915,1.915,0,0,0-1.652.808,3.037,3.037,0,0,0-.507,1.8v4.786h-2.026l.019-6.249q0-1.577-.076-2.872H159.2l.074,1.745h.056a3.119,3.119,0,0,1,1.013-1.445,2.45,2.45,0,0,1,1.465-.489,3.253,3.253,0,0,1,.507.037Z" transform="translate(-33.455 -1.907)"/>
      <path id="path28" d="M174.533,36.107a4.753,4.753,0,0,1-.074.919h-6.08a2.646,2.646,0,0,0,.882,2.066,3.012,3.012,0,0,0,1.989.638,6.724,6.724,0,0,0,2.46-.432l.317,1.407a7.606,7.606,0,0,1-3.058.564,4.43,4.43,0,0,1-3.333-1.248,4.61,4.61,0,0,1-1.21-3.35,5.226,5.226,0,0,1,1.127-3.434,3.884,3.884,0,0,1,3.189-1.463,3.4,3.4,0,0,1,2.986,1.463,4.933,4.933,0,0,1,.8,2.871Zm-1.933-.526a2.753,2.753,0,0,0-.394-1.558,1.77,1.77,0,0,0-1.615-.845,1.923,1.923,0,0,0-1.613.826,3.024,3.024,0,0,0-.6,1.576H172.6Z" transform="translate(-36.612 -1.898)"/>
    </g>
  </g>
</svg>
