<svg id="Слой_1" data-name="Слой 1" xmlns="http://www.w3.org/2000/svg" viewBox="0 0 253.08 253.08"><defs><style>.cls-1{fill:#010202;}.cls-2{fill:#fff;}.cls-3{fill:#dd5413;}.cls-4{fill:none;}.cls-5{fill:#fdfdfd;}</style></defs><title>Монтажная область 1</title><g id="Group_28" data-name="Group 28"><circle id="Ellipse_1" data-name="Ellipse 1" class="cls-1" cx="126.54" cy="126.54" r="126.54"/><path id="Path_43" data-name="Path 43" class="cls-2" d="M126.54,43.49a83.05,83.05,0,1,0,83,83.06h0A83.08,83.08,0,0,0,126.54,43.49Zm0,160a76.77,76.77,0,1,1,76.77-76.77A76.77,76.77,0,0,1,126.54,203.47Z"/><path id="Path_44" data-name="Path 44" class="cls-2" d="M37.84,182.27l2.51,3.61,8.16-5.65,1.57,2.36-10.52,7.22-4.08-6Z"/><path id="Path_45" data-name="Path 45" class="cls-2" d="M38.78,167.36l2,4.24,2-.31,1.41,2.83-13.34,1.72-1.57-3.3L38.78,163l1.41,2.83Zm-2,2-3.45,3.45,4.87-.79Z"/><path id="Path_46" data-name="Path 46" class="cls-2" d="M31.24,160.92a6.35,6.35,0,0,1-8-4q-.08-.26-.15-.52a6.52,6.52,0,0,1,1.26-6.12l2,2a3.08,3.08,0,0,0-.63,3.3,3.54,3.54,0,0,0,4.71,2.51A3.45,3.45,0,0,0,33,153.55a3,3,0,0,0-2.35-2.36l.63-2.83a6.56,6.56,0,0,1,0,12.56Z"/><path id="Path_47" data-name="Path 47" class="cls-2" d="M22.14,134.86l.47,3.3,9.89-1.26.31,2.83L22.92,141l.47,3.3-2.83.31-1.1-9.42Z"/><path id="Path_48" data-name="Path 48" class="cls-2" d="M23.71,118.53a4.4,4.4,0,0,1,4.24,4.55V125l3.92.16-.16,3L19,127.8l.16-4.87A4.63,4.63,0,0,1,23.71,118.53Zm-.16,3a1.61,1.61,0,0,0-1.72,1.5s0,0,0,.07V125l3.3.16v-1.88a1.46,1.46,0,0,0-1.57-1.73Z"/><path id="Path_49" data-name="Path 49" class="cls-2" d="M26.22,112.57A6.74,6.74,0,0,1,21,104.72a6.47,6.47,0,0,1,7.5-5.25l.35.07a6.62,6.62,0,0,1,5.19,7.8v0a6.47,6.47,0,0,1-7.49,5.26Zm2-10a3.49,3.49,0,0,0-4.4,2.83,3.73,3.73,0,0,0,2.93,4.39h.05a3.49,3.49,0,0,0,4.4-2.83,3.62,3.62,0,0,0-2.71-4.35Z"/><path id="Path_50" data-name="Path 50" class="cls-2" d="M28.89,81.64l11.77,4.87-1.1,2.67-4.71-1.88-1.57,3.77L38,92.94l-1.1,2.67L25.12,90.74l1.1-2.67L30.77,90l1.57-3.77-4.55-1.88Z"/><path id="Path_51" data-name="Path 51" class="cls-2" d="M37.84,77.87a6.6,6.6,0,1,1,9.11-2h0A6.72,6.72,0,0,1,37.84,77.87Zm5.49-8.79a3.71,3.71,0,1,0,.1.06Z"/><path id="Path_52" data-name="Path 52" class="cls-2" d="M62.64,56.36l-2,2-5.34-5,1.57,6.12-.16.31L50.56,58.4l5.34,5.18-2,2-9.11-8.79,2-2,6.44,1.41L51.5,49.77l2-2Z"/><path id="Path_53" data-name="Path 53" class="cls-2" d="M69.24,42.7v8.48l-1.73,1.26L60.13,42.08l2.35-1.73L66.57,46V37.52l1.73-1.26,7.38,10.36-2.35,1.73Z"/><path id="Path_54" data-name="Path 54" class="cls-2" d="M84,27.79l5.5,11.46-2.67,1.26-1.88-3.92a4.45,4.45,0,0,1-1.73,1.26,4.26,4.26,0,0,1-5.84-1.5l-.13-.23L75.36,32,78,30.77l1.73,3.77a1.56,1.56,0,0,0,2.35.78,7,7,0,0,0,1.73-1.26L81.49,29.2Z"/><path id="Path_55" data-name="Path 55" class="cls-2" d="M102.36,32l.79,2.67L95.46,37,91.84,24.8l7.54-2.36.79,2.67-4.71,1.41.63,2,4.4-1.26.79,2.67-4.4,1.41.63,2.2Z"/><path id="Path_56" data-name="Path 56" class="cls-2" d="M107.39,27.16a6.37,6.37,0,0,1,5.24-7.32l.41-.05a6.53,6.53,0,0,1,5.81,2.2l-2.36,1.73a3.19,3.19,0,0,0-3.14-1.1,3.54,3.54,0,0,0-3.14,4.24A3.58,3.58,0,0,0,114,30.2l.45-.06a3.21,3.21,0,0,0,2.67-1.89l2.67,1.1a6.23,6.23,0,0,1-5,3.61,6.59,6.59,0,0,1-7.37-5.7Z"/><path id="Path_57" data-name="Path 57" class="cls-2" d="M132.66,32l-3.93-6-.16,5.81-3-.16L126.07,19l3,.16-.31,5.49,4.08-5.34,3.3.16-4.55,6,4.23,6.75Z"/><path id="Path_58" data-name="Path 58" class="cls-2" d="M149.46,27.47l-6.28,5.81-2.2-.47,2.67-12.4,2.83.63-1.41,6.75L151.35,22l2.2.47-2.67,12.4-2.83-.63Z"/><path id="Path_59" data-name="Path 59" class="cls-2" d="M166.1,33,159,37.52l-2-.78L161.71,25l2.67,1.1-2.51,6.44,7.07-4.55,2,.78-4.71,11.78-2.67-1.1ZM165,22.45l5,2-.94,2.2-5-2Z"/><path id="Path_60" data-name="Path 60" class="cls-2" d="M180.7,45.22l3,.31a2.61,2.61,0,0,0,1.1,3c1.1.78,1.73.63,2,.16.47-.63,0-1.26-1.1-2.83-1.26-1.57-2.2-3.45-.63-5.34,1.41-2,3.93-1.88,5.81-.63a4.89,4.89,0,0,1,2,5l-2.83-.31a2.41,2.41,0,0,0-.94-2.51c-.79-.47-1.41-.47-1.73,0s-.31.94.94,2.67c1.26,1.57,2.51,3.45.94,5.65-1.41,2-3.93,2-6.12.31C180.86,49.14,180.23,47.1,180.7,45.22Z"/><path id="Path_61" data-name="Path 61" class="cls-2" d="M203.78,55.89l-2.35-2.35-7.07,7.06-2-2,7.07-7.06L197,49.14l2-2,6.75,6.75Z"/><path id="Path_62" data-name="Path 62" class="cls-2" d="M206.3,68l-.79-1.1-3.3,2.51L200.49,67l10.2-7.54,3,4.08a4.47,4.47,0,0,1-.94,6.12,4.4,4.4,0,0,1-4.4.31l-2.2,4.87-1.88-2.51Zm1.26-2.51,1.26,1.73a1.5,1.5,0,0,0,2.11.24l.09-.08a1.57,1.57,0,0,0,.49-2.17l0,0-1.26-1.73Z"/><path id="Path_63" data-name="Path 63" class="cls-2" d="M215.24,85.56l-2.51,1.26-3.61-7.06,11.3-5.81L224,81l-2.51,1.26-2.35-4.4-1.88.94,2,4.08-2.51,1.25-2-4.08-2,1.1Z"/><path id="Path_64" data-name="Path 64" class="cls-2" d="M220.27,98.91l-2.67.94-2.67-7.54L227,88.23l2.51,7.54-2.67.94L225.29,92l-2,.63,1.41,4.24-2.67.94-1.41-4.24-2.2.78Z"/><path id="Path_65" data-name="Path 65" class="cls-2" d="M230.32,112.1l-.63-3.14-9.73,1.73-.47-2.83,9.73-1.73-.63-3.14,2.83-.47,1.73,9.26Z"/><path id="Path_66" data-name="Path 66" class="cls-2" d="M231.1,131.72l-2.51-.15-.31,4.71-2.82-.16.31-4.71-4.71-.31.16-2.83,12.72.63-.47,7.69h-2.67Z"/><path id="Path_67" data-name="Path 67" class="cls-2" d="M226.55,142.71a6.6,6.6,0,0,1,5,7.85,6.52,6.52,0,0,1-7.71,5.05l-.14,0a6.6,6.6,0,0,1-5-7.85,6.52,6.52,0,0,1,7.71-5.05Zm-2.2,10a3.71,3.71,0,0,0,4.52-2.68l0-.15a3.52,3.52,0,0,0-2.47-4.32l-.35-.08a3.71,3.71,0,0,0-4.52,2.68l0,.15a3.52,3.52,0,0,0,2.48,4.32l.35.08Z"/><path id="Path_68" data-name="Path 68" class="cls-2" d="M221.68,161.71a6.48,6.48,0,0,1,3.43,8.5l-.13.29a6.56,6.56,0,0,1-8.65,3.37l-.15-.07a6.48,6.48,0,0,1-3.43-8.5l.13-.29a6.61,6.61,0,0,1,8.74-3.33Zm-4.24,9.42a3.73,3.73,0,0,0,5-1.77l.05-.11a3.61,3.61,0,0,0-1.73-4.8l-.15-.07a3.73,3.73,0,0,0-5,1.77l-.05.11a3.49,3.49,0,0,0,1.51,4.7l.37.16Z"/><path id="Path_69" data-name="Path 69" class="cls-2" d="M206.3,189a6,6,0,0,1-1.94-8.32l.21-.32,3-4.24,10.52,7.22-3,4.24a6.26,6.26,0,0,1-8.74,1.46Zm1.57-2.36a3.23,3.23,0,0,0,4.87-.79l1.26-1.73-5.81-4.08-1.26,1.73a3.4,3.4,0,0,0,.76,4.75l.18.12Z"/><path id="Path_70" data-name="Path 70" class="cls-2" d="M86.19,215.72,80.38,227l-2.51-1.26,2-3.93a7.77,7.77,0,0,1-2-.63c-2.2-1.1-3.45-3.45-2.2-5.81l2-4.08,2.51,1.26-1.88,3.61a1.62,1.62,0,0,0,.53,2.23l.25.13a10.15,10.15,0,0,0,2,.63l2.51-4.87Z"/><path id="Path_71" data-name="Path 71" class="cls-2" d="M93.26,229.06l-.94,2.67-7.54-2.83L89.18,217l7.38,2.67-.94,2.67-4.71-1.73-.78,2,4.24,1.57-.94,2.67-4.24-1.57-.78,2Z"/><path id="Path_72" data-name="Path 72" class="cls-2" d="M106.29,231.26c-.63,2.35-2.67,3.45-5.18,2.83L96.4,233l3-12.4,8,1.88-.63,2.67-5.18-1.26-.47,1.88,1.88.47C105.5,227,106.92,228.9,106.29,231.26Zm-2.83-.63a1.23,1.23,0,0,0-.84-1.52l-.26,0-1.88-.47-.63,2.51,1.88.47c.79,0,1.57-.16,1.73-.94Z"/><path id="Path_73" data-name="Path 73" class="cls-2" d="M119.95,224.19l-4.71,8.48a5.49,5.49,0,0,1-5.81,3.14l.31-2.67a2.37,2.37,0,0,0,2.67-.94l-3-9.11,2.83.31,1.73,5.81,2.83-5.18Z"/><path id="Path_74" data-name="Path 74" class="cls-3" d="M126.7,232.83h-1.41v4.24h-3l-.16-12.72,5-.16a4.22,4.22,0,0,1,2,8l2.83,4.55H128.9Zm-1.41-2.51h2.2a1.6,1.6,0,0,0,1.41-1.73,1.45,1.45,0,0,0-1.32-1.57h-2.29Z"/><path id="Path_75" data-name="Path 75" class="cls-3" d="M134.7,230.63a6.66,6.66,0,1,1,7.54,5.65h0a6.6,6.6,0,0,1-7.52-5.53Zm10.2-1.41a3.84,3.84,0,0,0-4.24-3.3A3.64,3.64,0,0,0,137.5,230l0,.18a3.84,3.84,0,0,0,4.24,3.3,3.64,3.64,0,0,0,3.17-4.06q0-.09,0-.18Z"/><path id="Path_76" data-name="Path 76" class="cls-3" d="M150.72,228.12a6.65,6.65,0,1,1,8.32,4.4,6.65,6.65,0,0,1-8.32-4.4Zm9.89-3a3.6,3.6,0,0,0-4.37-2.62l-.34.1a3.65,3.65,0,0,0-2.59,4.47q0,.12.07.24a3.6,3.6,0,0,0,4.37,2.62l.34-.1a3.71,3.71,0,0,0,2.55-4.59Z"/><path id="Path_77" data-name="Path 77" class="cls-3" d="M180.86,222.94l-2.67,1.26-3.3-6.59-.63,6.28L174,224l-5.34-3.45,3.3,6.59-2.67,1.26L163.59,217l2.67-1.26,5.65,3.61.63-6.59,2.67-1.26Z"/><path id="Path_78" data-name="Path 78" class="cls-4" d="M134.39,105.5v13h15.39c.47,0,6.28-.47,6.28-7.22a7.08,7.08,0,0,0-2.36-5.65,5,5,0,0,0-1.1-.16Z"/><path id="Path_80" data-name="Path 80" class="cls-5" d="M126.54,249.16A122.61,122.61,0,1,1,249.15,126.54,122.61,122.61,0,0,1,126.54,249.16Zm0-243.35C60,5.81,5.65,60,5.65,126.7A120.89,120.89,0,1,0,126.54,5.81Z"/><path id="Path_81" data-name="Path 81" class="cls-5" d="M45.22,218.07,44,216.81l28.89-28.73,1.26,1.26Z"/><path id="Path_82" data-name="Path 82" class="cls-5" d="M207.71,218.07l1.26-1.26-29-28.73-1.1,1.26Z"/></g></svg>