<svg xmlns="http://www.w3.org/2000/svg" viewBox="0 0 253.08 253.08">
  <defs>
    <style>
      .cls-1 {
        fill: #010202;
      }

      .cls-2 {
        fill: #fff;
      }

      .cls-3 {
        fill: #dd5413;
      }

      .cls-4 {
        fill: none;
      }

      .cls-5 {
        fill: #fdfdfd;
      }
    </style>
  </defs>
  <g id="Group_28" data-name="Group 28" transform="translate(-51 -500.12)">
    <circle id="Ellipse_1" data-name="Ellipse 1" class="cls-1" cx="126.54" cy="126.54" r="126.54" transform="translate(51 500.12)"/>
    <path id="Path_43" data-name="Path 43" class="cls-2" d="M110.752,27.7A83.052,83.052,0,1,0,193.8,110.752,83.084,83.084,0,0,0,110.752,27.7Zm0,159.981a76.772,76.772,0,1,1,76.772-76.772A76.886,76.886,0,0,1,110.752,187.681Z" transform="translate(66.788 515.908)"/>
    <path id="Path_44" data-name="Path 44" class="cls-2" d="M24.955,116.841l2.512,3.611,8.164-5.652,1.57,2.355-10.519,7.222L22.6,118.411Z" transform="translate(63.881 565.553)"/>
    <path id="Path_45" data-name="Path 45" class="cls-2" d="M28.12,108.2l2.041,4.239,2.041-.314,1.413,2.826L20.27,116.674l-1.57-3.3,9.42-9.577,1.413,2.826Zm-2.041,2.041-3.454,3.454,4.867-.785Z" transform="translate(61.659 559.283)"/>
    <path id="Path_46" data-name="Path 46" class="cls-2" d="M22.963,107.06a6.346,6.346,0,0,1-8.164-4.553,6.522,6.522,0,0,1,1.256-6.123L18.1,98.425a3.082,3.082,0,0,0-.628,3.3,3.544,3.544,0,0,0,4.71,2.512,3.446,3.446,0,0,0,2.512-4.553,3.019,3.019,0,0,0-2.355-2.355l.628-2.826a6.556,6.556,0,0,1,0,12.56Z" transform="translate(59.28 553.983)"/>
    <path id="Path_47" data-name="Path 47" class="cls-2" d="M15.069,85.9l.471,3.3,9.891-1.256.314,2.826-9.891,1.256.471,3.3-2.826.314-1.1-9.42Z" transform="translate(58.068 549.081)"/>
    <path id="Path_48" data-name="Path 48" class="cls-2" d="M16.81,75.5a4.4,4.4,0,0,1,4.239,4.553v1.884l3.925.157-.157,2.983L12.1,84.763l.157-4.867A4.629,4.629,0,0,1,16.81,75.5Zm-.157,2.983a1.614,1.614,0,0,0-1.727,1.57v1.884l3.3.157V80.21A1.46,1.46,0,0,0,16.653,78.483Z" transform="translate(57.897 543.153)"/>
    <path id="Path_49" data-name="Path 49" class="cls-2" d="M18.62,76.486a6.743,6.743,0,0,1-5.181-7.85,6.473,6.473,0,0,1,7.85-5.181A6.623,6.623,0,0,1,26.47,71.3,6.473,6.473,0,0,1,18.62,76.486Zm2.041-10.048a3.492,3.492,0,0,0-4.4,2.826,3.733,3.733,0,0,0,2.983,4.4,3.492,3.492,0,0,0,4.4-2.826A3.622,3.622,0,0,0,20.661,66.438Z" transform="translate(58.599 536.201)"/>
    <path id="Path_50" data-name="Path 50" class="cls-2" d="M19.768,52l11.775,4.867-1.1,2.669-4.71-1.884-1.57,3.768,4.71,1.884-1.1,2.669L16,61.106l1.1-2.669,4.553,1.884,1.57-3.768-4.553-1.884Z" transform="translate(60.12 529.759)"/>
    <path id="Path_51" data-name="Path 51" class="cls-2" d="M25.208,54.025a6.6,6.6,0,1,1,9.106-2.041A6.719,6.719,0,0,1,25.208,54.025ZM30.7,45.234a3.7,3.7,0,1,0,1.256,5.181A3.709,3.709,0,0,0,30.7,45.234Z" transform="translate(63.628 523.965)"/>
    <path id="Path_52" data-name="Path 52" class="cls-2" d="M46.4,39.035l-2.041,2.041-5.338-5.024,1.57,6.123-.157.314-6.123-1.413,5.338,5.181L37.606,48.3,28.5,39.506l2.041-2.041,6.437,1.413-1.727-6.437L37.292,30.4Z" transform="translate(67.244 517.447)"/>
    <path id="Path_53" data-name="Path 53" class="cls-2" d="M47.406,29.537v8.478l-1.727,1.256L38.3,28.909l2.355-1.727,4.082,5.652V24.356L46.464,23.1l7.379,10.362-2.355,1.727Z" transform="translate(72.83 513.286)"/>
    <path id="Path_54" data-name="Path 54" class="cls-2" d="M56.635,17.7,62.13,29.161l-2.669,1.256-1.884-3.925a4.453,4.453,0,0,1-1.727,1.256,4.263,4.263,0,0,1-5.966-1.727L48,21.939l2.669-1.256L52.4,24.451a1.561,1.561,0,0,0,2.355.785,6.971,6.971,0,0,0,1.727-1.256l-2.355-4.867Z" transform="translate(78.359 510.208)"/>
    <path id="Path_55" data-name="Path 55" class="cls-2" d="M69.019,23.877l.785,2.669L62.111,28.9,58.5,16.655,66.036,14.3l.785,2.669-4.71,1.413.628,2.041,4.4-1.256.785,2.669-4.4,1.413.628,2.2Z" transform="translate(84.344 508.27)"/>
    <path id="Path_56" data-name="Path 56" class="cls-2" d="M68.422,20a6.369,6.369,0,0,1,5.652-7.379,6.526,6.526,0,0,1,5.809,2.2l-2.355,1.727a3.19,3.19,0,0,0-3.14-1.1,3.543,3.543,0,0,0-3.14,4.239,3.577,3.577,0,0,0,4.239,3.3A3.212,3.212,0,0,0,78.156,21.1l2.669,1.1A6.225,6.225,0,0,1,75.8,25.81,6.587,6.587,0,0,1,68.422,20Z" transform="translate(89.965 507.28)"/>
    <path id="Path_57" data-name="Path 57" class="cls-2" d="M87.065,25.131,83.14,19.165l-.157,5.809L80,24.817,80.471,12.1l2.983.157-.314,5.495,4.082-5.338,3.3.157-4.553,5.966L90.2,25.288Z" transform="translate(96.598 507.017)"/>
    <path id="Path_58" data-name="Path 58" class="cls-2" d="M98.278,20.065,92,25.874,89.8,25.4,92.469,13l2.826.628-1.413,6.751,6.28-5.809,2.2.471-2.669,12.4-2.826-.628Z" transform="translate(102.184 507.529)"/>
    <path id="Path_59" data-name="Path 59" class="cls-2" d="M109.106,24.819l-7.065,4.553L100,28.587l4.71-11.775,2.669,1.1-2.512,6.437,7.065-4.553,2.041.785-4.71,11.775-2.669-1.1Zm-1.1-10.519,5.024,2.041-.942,2.2L107.065,16.5Z" transform="translate(107.998 508.27)"/>
    <path id="Path_60" data-name="Path 60" class="cls-2" d="M115.153,31.075l2.983.314a2.613,2.613,0,0,0,1.1,2.983c1.1.785,1.727.628,2.041.157.471-.628,0-1.256-1.1-2.826-1.256-1.57-2.2-3.454-.628-5.338,1.413-2.041,3.925-1.884,5.809-.628a4.893,4.893,0,0,1,2.041,5.024l-2.826-.314a2.408,2.408,0,0,0-.942-2.512c-.785-.471-1.413-.471-1.727,0s-.314.942.942,2.669c1.256,1.57,2.512,3.454.942,5.652-1.413,2.041-3.925,2.041-6.123.314C115.31,35,114.682,32.959,115.153,31.075Z" transform="translate(116.551 514.26)"/>
    <path id="Path_61" data-name="Path 61" class="cls-2" d="M133.961,38.792l-2.355-2.355L124.541,43.5,122.5,41.461l7.065-7.065-2.355-2.355L129.251,30,136,36.751Z" transform="translate(120.822 517.219)"/>
    <path id="Path_62" data-name="Path 62" class="cls-2" d="M133.509,46.378l-.785-1.1-3.3,2.512L127.7,45.436,137.9,37.9l2.983,4.082a4.466,4.466,0,0,1-.942,6.123,4.4,4.4,0,0,1-4.4.314l-2.2,4.867-1.884-2.512Zm1.256-2.512,1.256,1.727a1.5,1.5,0,0,0,2.2.157,1.571,1.571,0,0,0,.471-2.2l-1.256-1.727Z" transform="translate(123.786 521.722)"/>
    <path id="Path_63" data-name="Path 63" class="cls-2" d="M139.323,58.718l-2.512,1.256L133.2,52.909,144.5,47.1l3.611,7.065L145.6,55.421l-2.355-4.4-1.884.942,2.041,4.082L140.893,57.3l-2.041-4.082-2.041,1.1Z" transform="translate(126.921 526.966)"/>
    <path id="Path_64" data-name="Path 64" class="cls-2" d="M142.238,66.876l-2.669.942L136.9,60.282,148.989,56.2l2.512,7.536-2.669.942-1.57-4.71-2.041.628,1.413,4.239-2.669.942-1.413-4.239-2.2.785Z" transform="translate(129.03 532.152)"/>
    <path id="Path_65" data-name="Path 65" class="cls-2" d="M150.633,74.877,150,71.737l-9.734,1.727-.471-2.826,9.734-1.727-.628-3.14,2.826-.471,1.727,9.263Z" transform="translate(130.683 537.339)"/>
    <path id="Path_66" data-name="Path 66" class="cls-2" d="M150.848,85.154,148.336,85l-.314,4.71L145.2,89.55l.314-4.71-4.71-.314.157-2.826,12.717.628-.471,7.693h-2.669Z" transform="translate(131.253 546.687)"/>
    <path id="Path_67" data-name="Path 67" class="cls-2" d="M147.208,90.958a6.6,6.6,0,0,1,5.024,7.85,6.52,6.52,0,0,1-7.85,5.024,6.6,6.6,0,0,1-5.024-7.85A6.52,6.52,0,0,1,147.208,90.958Zm-2.2,10.048a3.713,3.713,0,0,0,4.553-2.826,3.522,3.522,0,0,0-2.826-4.4,3.713,3.713,0,0,0-4.553,2.826A3.522,3.522,0,0,0,145.01,101.005Z" transform="translate(130.34 551.873)"/>
    <path id="Path_68" data-name="Path 68" class="cls-2" d="M144.624,103.223a6.483,6.483,0,0,1,3.3,8.792,6.561,6.561,0,0,1-8.792,3.3,6.483,6.483,0,0,1-3.3-8.792A6.61,6.61,0,0,1,144.624,103.223Zm-4.239,9.42a3.734,3.734,0,0,0,5.024-1.884,3.608,3.608,0,0,0-1.884-4.867,3.734,3.734,0,0,0-5.024,1.884A3.492,3.492,0,0,0,140.385,112.642Z" transform="translate(128.057 558.605)"/>
    <path id="Path_69" data-name="Path 69" class="cls-2" d="M132.44,125.074a6.039,6.039,0,0,1-1.727-8.635L133.7,112.2l10.519,7.222-2.983,4.239A6.263,6.263,0,0,1,132.44,125.074Zm1.57-2.355a3.231,3.231,0,0,0,4.867-.785l1.256-1.727-5.809-4.082-1.256,1.727A3.4,3.4,0,0,0,134.01,122.719Z" transform="translate(124.855 564.071)"/>
    <path id="Path_70" data-name="Path 70" class="cls-2" d="M58.9,139l-5.809,11.3-2.512-1.256,2.041-3.925a7.773,7.773,0,0,1-2.041-.628c-2.2-1.1-3.454-3.454-2.2-5.809l2.041-4.082,2.512,1.256-1.884,3.611a1.621,1.621,0,0,0,.785,2.355,10.155,10.155,0,0,0,2.041.628l2.512-4.867Z" transform="translate(78.292 576.839)"/>
    <path id="Path_71" data-name="Path 71" class="cls-2" d="M62.478,150.289l-.942,2.669L54,150.132,58.4,138.2l7.379,2.669-.942,2.669-4.71-1.727-.785,2.041,4.239,1.57-.942,2.669-4.239-1.57-.785,2.041Z" transform="translate(81.779 578.891)"/>
    <path id="Path_72" data-name="Path 72" class="cls-2" d="M71.291,151.176c-.628,2.355-2.669,3.454-5.181,2.826l-4.71-1.1,2.983-12.4,8.007,1.884-.628,2.669L66.581,143.8l-.471,1.884,1.884.471C70.506,146.937,71.919,148.821,71.291,151.176Zm-2.826-.628a1.23,1.23,0,0,0-1.1-1.57l-1.884-.471-.628,2.512,1.884.471C67.523,151.49,68.308,151.333,68.465,150.548Z" transform="translate(85.997 580.201)"/>
    <path id="Path_73" data-name="Path 73" class="cls-2" d="M80.219,143.2l-4.71,8.478a5.49,5.49,0,0,1-5.809,3.14l.314-2.669a2.371,2.371,0,0,0,2.669-.942L69.7,142.1l2.826.314,1.727,5.809,2.826-5.181Z" transform="translate(90.727 581.113)"/>
    <path id="Path_74" data-name="Path 74" class="cls-3" d="M82.353,151.435H80.94v4.239H77.957L77.8,142.957l5.024-.157a4.223,4.223,0,0,1,2.041,8.007l2.826,4.553h-3.14Zm-1.413-2.512h2.2a1.6,1.6,0,0,0,1.413-1.727,1.45,1.45,0,0,0-1.413-1.57h-2.2Z" transform="translate(95.344 581.512)"/>
    <path id="Path_75" data-name="Path 75" class="cls-3" d="M85.821,149.658a6.661,6.661,0,1,1,7.536,5.652A6.6,6.6,0,0,1,85.821,149.658Zm10.2-1.413a3.84,3.84,0,0,0-4.239-3.3,3.642,3.642,0,0,0-3.14,4.239,3.84,3.84,0,0,0,4.239,3.3A3.642,3.642,0,0,0,96.025,148.245Z" transform="translate(99.883 581.092)"/>
    <path id="Path_76" data-name="Path 76" class="cls-3" d="M96.108,148.434a6.654,6.654,0,1,1,8.321,4.4A6.653,6.653,0,0,1,96.108,148.434ZM106,145.451a3.6,3.6,0,0,0-4.71-2.512,3.649,3.649,0,0,0-2.512,4.71,3.6,3.6,0,0,0,4.71,2.512A3.711,3.711,0,0,0,106,145.451Z" transform="translate(105.609 579.803)"/>
    <path id="Path_77" data-name="Path 77" class="cls-3" d="M121.47,146.161l-2.669,1.256-3.3-6.594-.628,6.28-.314.157-5.338-3.454,3.3,6.594-2.669,1.256L104.2,140.195l2.669-1.256,5.652,3.611.628-6.594,2.669-1.256Z" transform="translate(110.392 576.896)"/>
    <path id="Path_78" data-name="Path 78" class="cls-4" d="M85.6,67.2V80.231h15.386c.471,0,6.28-.471,6.28-7.222a7.08,7.08,0,0,0-2.355-5.652,5.019,5.019,0,0,0-1.1-.157H85.6Z" transform="translate(99.79 538.422)"/>
    <path id="Path_79" data-name="Path 79" class="cls-2" d="M127.786,124.84H142.7L127,102.86l1.1-.471a14.909,14.909,0,0,0,2.669-1.57c.785-.471,1.57-1.1,2.355-1.57a19.889,19.889,0,0,0,2.041-1.727,8.228,8.228,0,0,0,1.57-1.727,17.987,17.987,0,0,0,2.512-3.454,7.334,7.334,0,0,0,.785-1.57c.157-.471.471-1.1.628-1.57s.314-.942.471-1.57c.157-.471.157-.942.314-1.413a25.437,25.437,0,0,0,.157-3.454,28.028,28.028,0,0,0-.314-3.611c0-.628-.157-1.1-.157-1.727-.157-.785-.314-1.57-.471-2.2a10.154,10.154,0,0,0-.628-2.041,9.6,9.6,0,0,0-.785-1.884c-.314-.628-.628-1.1-.942-1.727-.314-.471-.628-.942-1.1-1.57a8.975,8.975,0,0,0-1.1-1.256,4.232,4.232,0,0,0-1.256-1.1,7.863,7.863,0,0,1-1.256-1.1c-.471-.314-.785-.628-1.256-.942s-.785-.471-1.256-.785c-.471-.157-.785-.471-1.256-.628a10.816,10.816,0,0,0-1.256-.471c-.314-.157-.785-.314-1.1-.471s-.628-.157-.942-.314-.628-.157-.942-.314c-.314,0-.471-.157-.785-.157-.157,0-.471-.157-.628-.157H89.949L89.792,90.3H75.82c-11.3-.471-12.089-8.007-12.089-17.584V60H50.7V72.717c0,20.41,7.536,29.2,25.12,29.516h14.13V124.84h11.618V102.232h11.3ZM101.567,71.618h19.311c.157,0,8.792.314,8.792,9.42s-8.321,9.42-8.478,9.42H101.567Z" transform="translate(79.898 534.318)"/>
    <path id="Path_80" data-name="Path 80" class="cls-5" d="M125.115,247.73A122.615,122.615,0,1,1,247.73,125.115,122.682,122.682,0,0,1,125.115,247.73Zm0-243.346C58.548,4.384,4.227,58.548,4.227,125.272A120.888,120.888,0,1,0,125.115,4.384Z" transform="translate(52.425 501.545)"/>
    <path id="Path_81" data-name="Path 81" class="cls-5" d="M29.256,149.787,28,148.531,56.888,119.8l1.256,1.256Z" transform="translate(66.959 568.403)"/>
    <path id="Path_82" data-name="Path 82" class="cls-5" d="M142.788,149.787l1.256-1.256L115,119.8l-1.1,1.256Z" transform="translate(115.92 568.403)"/>
  </g>
</svg>
