<svg id="Слой_1" data-name="Слой 1" xmlns="http://www.w3.org/2000/svg" viewBox="0 0 253.08 253.08"><defs><style>.cls-1{fill:#fff;}</style></defs><title>Монтажная область 1</title><g id="Group_28" data-name="Group 28"><path id="Path_79" data-name="Path 79" class="cls-1" d="M157.63,159h14.91l-15.7-22,1.1-.47a14.91,14.91,0,0,0,2.67-1.57c.79-.47,1.57-1.1,2.35-1.57a19.89,19.89,0,0,0,2-1.73,8.23,8.23,0,0,0,1.57-1.73,18,18,0,0,0,2.51-3.45,7.33,7.33,0,0,0,.79-1.57c.16-.47.47-1.1.63-1.57s.31-.94.47-1.57c.16-.47.16-.94.31-1.41a25.44,25.44,0,0,0,.16-3.45,28,28,0,0,0-.31-3.61c0-.63-.16-1.1-.16-1.73-.16-.79-.31-1.57-.47-2.2a10.15,10.15,0,0,0-.63-2,9.6,9.6,0,0,0-.79-1.88c-.31-.63-.63-1.1-.94-1.73-.31-.47-.63-.94-1.1-1.57a9,9,0,0,0-1.1-1.26,4.23,4.23,0,0,0-1.26-1.1,7.86,7.86,0,0,1-1.26-1.1c-.47-.31-.79-.63-1.26-.94s-.79-.47-1.26-.78c-.47-.16-.79-.47-1.26-.63a10.82,10.82,0,0,0-1.26-.47c-.31-.16-.79-.31-1.1-.47s-.63-.16-.94-.31-.63-.16-.94-.31c-.31,0-.47-.16-.79-.16-.16,0-.47-.16-.63-.16H119.79l-.16,30h-14c-11.3-.47-12.09-8-12.09-17.58V94.12h-13v12.72c0,20.41,7.54,29.2,25.12,29.52h14.13V159h11.62V136.35h11.3Zm-26.22-53.22h19.31c.16,0,8.79.31,8.79,9.42s-8.32,9.42-8.48,9.42H131.41Z"/></g></svg>