<svg id="Group_20" data-name="Group 20" xmlns="http://www.w3.org/2000/svg" viewBox="0 0 256.182 256.182">
  <g id="Group_17" data-name="Group 17" transform="translate(29.226 23.574)">
    <path id="Path_83" data-name="Path 83" d="M38.613,68.937A8.566,8.566,0,0,1,43.3,80.363l-2.766,6.495L24.3,79.882l2.766-6.495A8.5,8.5,0,0,1,38.613,68.937Zm-1.564,3.608c-2.766-1.2-5.292-.241-6.374,2.405l-1.2,2.766,9.141,3.969,1.2-2.766C40.9,76.274,39.936,73.748,37.049,72.545Z" transform="translate(-24.3 -9.763)"/>
    <path id="Path_84" data-name="Path 84" d="M38.347,68.81a9.214,9.214,0,1,1,12.869-2.045A9.125,9.125,0,0,1,38.347,68.81Zm8.419-11.667a5.2,5.2,0,0,0-7.337,1.082,5.008,5.008,0,0,0,1.2,7.216,5.2,5.2,0,0,0,7.337-1.082C49.773,62.075,49.412,59.068,46.766,57.144Z" transform="translate(-22.23 -13.003)"/>
    <path id="Path_85" data-name="Path 85" d="M52.307,57.627l1.2-3.849a3.941,3.941,0,0,0,4.45-.722c1.443-1.323,1.2-2.165.842-2.646-.722-.842-1.8-.481-4.21.842-2.405,1.2-5.172,2.045-7.457-.481s-1.564-5.893.722-7.938a6.846,6.846,0,0,1,7.457-1.443l-1.2,3.728a3.146,3.146,0,0,0-3.608.6c-.962.842-.962,1.8-.481,2.285.6.6,1.2.722,3.849-.6,2.526-1.2,5.412-2.526,7.938.12,2.285,2.526,1.684,5.893-1.2,8.419C57.719,58.589,54.833,58.95,52.307,57.627Z" transform="translate(-19.953 -15.291)"/>
    <path id="Path_86" data-name="Path 86" d="M67.31,34.247l-3.849,2.526,7.577,11.546L67.671,50.6,60.093,39.058l-3.728,2.405L54.2,38.216,65.145,31Z" transform="translate(-18.238 -17.289)"/>
    <path id="Path_87" data-name="Path 87" d="M81.006,39.45,74.992,42.1l.361,2.887-4.089,1.8L69.7,28.145,74.391,26.1,87.019,39.931,82.93,41.615ZM78.36,36.444l-4.45-5.051.722,6.735Z" transform="translate(-15.096 -18.282)"/>
    <path id="Path_88" data-name="Path 88" d="M80.5,24.028l4.33-.962,6.735,11.787.962-13.591,4.33-.962L95.173,38.822,90.122,39.9Z" transform="translate(-12.906 -19.458)"/>
    <path id="Path_89" data-name="Path 89" d="M108.644,37.4l-5.893-8.058.241,8.179-4.089.12-.6-17.68,4.089-.12.241,7.7L107.8,19.72l4.57-.12-5.653,8.78,6.495,8.9Z" transform="translate(-9.298 -19.6)"/>
    <path id="Path_90" data-name="Path 90" d="M123.748,36.236l-6.495-1.082L115.93,37.8l-4.33-.722L120.5,20.6l5.051.842,3.007,18.4-4.45-.722Zm-.6-3.969-.962-6.735-3.127,6.014Z" transform="translate(-6.601 -19.397)"/>
    <path id="Path_91" data-name="Path 91" d="M147.714,42.037c-1.684,3.368-5.292,4.811-8.3,3.368a4.793,4.793,0,0,1-2.766-3.007l-.481,1.082L132.8,41.8l7.7-16,3.368,1.684-2.646,5.653a4.937,4.937,0,0,1,4.089.241C148.195,34.82,149.4,38.669,147.714,42.037Zm-3.368-1.684a2.865,2.865,0,0,0-1.323-4.089,2.968,2.968,0,0,0-4.089,1.443,2.865,2.865,0,0,0,1.323,4.089A2.8,2.8,0,0,0,144.346,40.353Z" transform="translate(-2.303 -18.343)"/>
    <path id="Path_92" data-name="Path 92" d="M162,43.618,151.42,51.075c-3.488,2.405-6.254,2.405-9.021.241l2.045-2.887c1.443.962,2.405,1.082,3.728.12L151.06,35.8l3.368,2.405-2.165,7.938,6.374-4.931Z" transform="translate(-0.357 -16.316)"/>
  </g>
  <path id="Path_93" data-name="Path 93" d="M126.672,246.224C60.642,246.224,7,192.582,7,126.672a119.672,119.672,0,0,1,239.344,0C246.224,192.582,192.582,246.224,126.672,246.224Zm0-237.54A117.988,117.988,0,1,0,244.66,126.672,118.11,118.11,0,0,0,126.672,8.684Z" transform="translate(1.419 1.419)"/>
  <g id="Group_18" data-name="Group 18" transform="translate(75.506 110.651)">
    <path id="Path_94" data-name="Path 94" d="M64.849,185.321l2.766-4.811-.722-.361c-4.811-2.766-5.172-6.254-2.285-11.065l.962-1.684,3.608,2.045-.962,1.684c-1.323,2.405-2.165,4.089.6,5.653l.722.361,3.247-5.653,3.608,2.045-7.938,13.831Z" transform="translate(-62.778 -76.714)"/>
    <path id="Path_95" data-name="Path 95" d="M85.511,180.576c-2.165-.842-3.368-1.323-5.533-2.165l-.842,2.165,5.051,1.924c-.481,1.082-.842,2.285-1.323,3.368l-5.051-1.924a17.167,17.167,0,0,0-.962,2.646c2.165.842,3.488,1.323,5.773,2.165-.481,1.082-.842,2.285-1.323,3.368-3.488-1.323-6.014-2.285-9.5-3.608,1.924-5.051,3.849-9.983,5.773-14.914,3.488,1.323,5.773,2.285,9.381,3.608A21.8,21.8,0,0,0,85.511,180.576Z" transform="translate(-60.949 -75.457)"/>
    <path id="Path_96" data-name="Path 96" d="M92.72,184.156c7.457,1.564,5.292,11.787-2.165,10.223L83.7,192.936,86.947,177.3l11.185,2.405-.722,3.608-7.216-1.564-.361,1.924Zm-3.608,2.887-.6,3.007c.962.241,1.924.361,2.887.6a1.541,1.541,0,1,0,.6-3.007Z" transform="translate(-58.537 -74.707)"/>
    <path id="Path_97" data-name="Path 97" d="M99.165,195.136l2.766-5.051L97,180.1v-.6l4.57.241,2.766,6.014h.12l3.007-5.773,4.45.241v.6l-8.3,15.034-4.45-.241Z" transform="translate(-55.841 -74.261)"/>
    <path id="Path_98" data-name="Path 98" d="M125.575,193.741l.12.6-4.57.6-3.247-4.33-2.165.241.6,4.691c-1.323.12-2.766.361-4.089.481-.6-5.292-1.323-10.584-1.924-15.876,2.285-.241,4.691-.6,6.976-.842,6.254-.722,8.3,6.615,4.57,9.862ZM117.757,182.8l-2.887.361c.12,1.323.361,2.646.481,3.969l2.887-.361C120.4,186.525,120.042,182.556,117.757,182.8Z" transform="translate(-53.144 -74.31)"/>
    <path id="Path_99" data-name="Path 99" d="M123.874,186.715c-3.247-10.584,12.388-15.4,15.636-4.931C142.878,192.368,127.242,197.3,123.874,186.715Zm11.667-3.608a4.043,4.043,0,1,0-7.7,2.405C129.647,191.045,137.345,188.639,135.541,183.107Z" transform="translate(-50.482 -74.981)"/>
    <path id="Path_100" data-name="Path 100" d="M138.993,182.071c-5.292-9.742,9.141-17.56,14.433-7.818S144.285,191.814,138.993,182.071Zm10.7-5.893a4.044,4.044,0,1,0-7.1,3.849C145.488,185.2,152.464,181.35,149.7,176.178Z" transform="translate(-47.56 -76.231)"/>
    <path id="Path_101" data-name="Path 101" d="M159.645,159.262l1.082-.962,10.344,12.268c-1.082.842-2.165,1.8-3.247,2.646l-4.57-5.412-.241,4.931-.361.241-4.931-.481,4.57,5.412c-1.082.842-2.165,1.8-3.247,2.646L148.7,168.283l1.2-.962,9.261,1.2Z" transform="translate(-45.359 -78.559)"/>
    <path id="Path_102" data-name="Path 102" d="M174.665,157.065l4.21,3.007c-.842,1.082-1.684,2.285-2.405,3.368L163.6,154.058c1.924-2.646,3.969-5.412,5.893-8.058,1.082.842,1.8,1.323,3.007,2.165l-3.368,4.691L171.9,154.9l3.007-4.21c1.082.842,1.8,1.323,3.007,2.165Z" transform="translate(-42.339 -81.052)"/>
    <path id="Path_103" data-name="Path 103" d="M185.313,144.47,182.426,150l1.323,1.8-1.8,3.488-.481-.241L171,141.464l.842-1.564,17.2.842.481.241-1.8,3.488Zm-8.3-.842,2.887,3.608,1.684-3.247Z" transform="translate(-40.838 -82.289)"/>
    <path id="Path_104" data-name="Path 104" d="M178.889,122.843l.481-1.443,15.395,4.691c-.361,1.323-.842,2.646-1.2,3.969l-6.856-2.045,2.405,4.33-.12.481-4.45,2.165,6.856,2.045c-.361,1.323-.842,2.646-1.2,3.969L174.8,136.314l.481-1.443L183.7,130.9Z" transform="translate(-40.068 -86.04)"/>
    <path id="Path_105" data-name="Path 105" d="M192.05,114.964l3.608.481-1.082,8.058-3.608-.481.241-2.045-8.78-1.2-.241,1.8L178.7,121.1l1.082-7.7,3.488.481-.241,1.8,8.78,1.2Z" transform="translate(-39.277 -87.661)"/>
    <path id="Path_106" data-name="Path 106" d="M192.088,109.473l.12-5.773c1.323,0,2.285,0,3.729.12-.12,3.247-.12,6.615-.241,9.862l-16-.361c0-1.323,0-2.766.12-4.089C188.119,109.353,185.353,109.353,192.088,109.473Z" transform="translate(-39.075 -89.628)"/>
    <path id="Path_107" data-name="Path 107" d="M195.2,95.728l.481,3.969-6.735.722-8.058,6.254-.6.12-.481-4.33,4.931-3.488v-.12l-5.653-2.285-.481-4.45.6-.12,9.261,4.45Z" transform="translate(-39.298 -92)"/>
  </g>
  <path id="Path_108" data-name="Path 108" d="M212.891,58.787a3.154,3.154,0,0,0-3.247-.12l-13.11,6.856a1.963,1.963,0,1,0,1.8,3.488l12.027-6.254-.12.842a11.373,11.373,0,0,1-6.134,9.381l-.12.12-.842.481L177.169,87.171a1.963,1.963,0,1,0,1.8,3.488l23.333-12.268v1.082c.12,3.608-1.2,6.495-3.608,7.818l-3.728,1.924h0l-18.161,9.5a2.122,2.122,0,0,0-.962,1.082,14.759,14.759,0,0,0-10.223-5.893V92.824a11.516,11.516,0,0,1,6.134-9.983l15.636-8.179a1.963,1.963,0,1,0-1.8-3.488l-15.636,8.179a15.112,15.112,0,0,0-7.818,10.1,17.829,17.829,0,0,0-4.691-3.728,14.969,14.969,0,0,0-10.584-1.564l-.722.12-.481-.6a14.689,14.689,0,0,0-9.02-4.931,14.879,14.879,0,0,0-5.172.12,14.212,14.212,0,0,0-5.172,2.285l-.722.481-.722-.361a13.376,13.376,0,0,0-9.5-1.323,3.06,3.06,0,0,0-.842.241,13.228,13.228,0,0,0-8.179,6.254l-.361.722-.842-.12a17.467,17.467,0,0,0-4.33.241A14.225,14.225,0,0,0,94.9,90.178a14.487,14.487,0,0,0-5.172,8.9l-.241.962-.722.241a14.991,14.991,0,0,0-8.3,6.856,16.555,16.555,0,0,0-2.285,9.983l.12.722-.6.481a15.116,15.116,0,0,0-12.508-6.254l-44.862.6a3.206,3.206,0,0,0-2.646,4.931l1.082,1.684a15.334,15.334,0,0,0,12.869,7.1l1.323,2.646c2.165,4.57,6.254,7.337,10.464,7.337h3.007l.722,2.285c1.564,4.811,4.57,7.7,7.818,7.577l22.13-.361a14.78,14.78,0,0,0,2.526,9.5c1.684,2.405,5.653,6.254,13.591,4.811a5.209,5.209,0,0,1,.6-.12c.361-.12.6-.12.962-.241a105.567,105.567,0,0,0,11.667-4.57,218.879,218.879,0,0,1,26.1-9.742c2.045-.6,4.21-1.082,6.495-1.564,7.457-1.684,14.914-2.646,20.928-3.488,4.57-.6,8.058-1.082,10.825-1.684,1.2-.241,2.165-.6,3.007-.842,7.577-2.887,9.021-8.179,9.141-11.065a14.988,14.988,0,0,0-3.488-10.464l-.481-.481.12-.6a12.982,12.982,0,0,0,.361-2.285l15.515-8.179c2.887-1.564,4.089-5.412,3.247-10.344l-.481-2.405,2.766-1.443c3.728-1.924,6.014-6.374,5.773-11.426l-.12-3.007a15.271,15.271,0,0,0,7.938-12.388l.12-2.045A3.021,3.021,0,0,0,212.891,58.787ZM54.972,142.377c-1.443,0-3.127-1.924-4.089-4.931l-.361-1.2L68.442,136a1.924,1.924,0,1,0,0-3.849L48,132.394h0l-4.45.12c-2.766,0-5.412-1.924-6.976-5.172l-.481-.962,26.34-.361a1.924,1.924,0,1,0,0-3.849l-29.347.481-.962-.12h-.241a11.646,11.646,0,0,1-9.862-5.292l-.481-.722,43.659-.6a11.614,11.614,0,0,1,9.742,5.172,15.842,15.842,0,0,0-3.127,9.862,20.266,20.266,0,0,0,3.849,11.306Zm117.146-8.9a8.89,8.89,0,0,1-2.285.6c-2.526.6-6.254,1.082-10.464,1.684a213.175,213.175,0,0,0-21.288,3.608c-2.285.481-4.57,1.082-6.735,1.684a202.449,202.449,0,0,0-26.7,9.983c-5.051,2.165-9.261,3.969-11.787,4.57a.442.442,0,0,0-.361.12c-3.969.722-6.856-.241-8.78-2.766-2.165-3.007-2.045-7.216-1.323-8.539l1.443-2.405-2.526-1.082c-.12,0-.241-.12-.361-.241-1.443-.962-3.247-3.608-3.969-7.1a11.862,11.862,0,0,1-.361-2.887,23.432,23.432,0,0,1,.241-3.007,9.43,9.43,0,0,1,3.007-5.172,7.4,7.4,0,0,1,2.285-1.443l1.924-.962-.722-2.045c-.962-2.405-.481-5.773,1.2-8.539a10.592,10.592,0,0,1,6.254-4.931c.12,0,.361-.12.481-.12a2.047,2.047,0,0,1,.842-.12l2.285-.361-.241-2.285a9.408,9.408,0,0,1,3.608-7.7,10.534,10.534,0,0,1,3.849-1.924,9.881,9.881,0,0,1,4.931.241l2.526.842.361-2.526h0c.12-.722,1.323-4.33,6.014-5.533.241,0,.361-.12.481-.12a8.1,8.1,0,0,1,7.457,1.8h0l1.684,1.924,1.8-1.924a10.011,10.011,0,0,1,5.051-3.007,11.193,11.193,0,0,1,3.488-.12,9.651,9.651,0,0,1,7.1,4.811l.962,2.045,2.045-.842a10.584,10.584,0,0,1,1.8-.6,10.754,10.754,0,0,1,7.337,1.082c2.887,1.564,5.051,4.21,5.412,6.735l.361,2.165,1.8-.12h.361a9.358,9.358,0,0,1,4.089.481,10.136,10.136,0,0,1,5.653,4.931,14.585,14.585,0,0,1,1.924,6.976,7.3,7.3,0,0,1-.722,4.089l-.481.6-1.2,1.684,2.405,1.323c1.323.722,3.608,4.45,3.247,8.058C177.891,129.748,175.846,132.033,172.118,133.477Zm21.168-32.113-13.831,7.216a22.449,22.449,0,0,0-2.045-6.254,1.787,1.787,0,0,0,1.082-.241l15.876-8.3.241,1.2C195.09,98.116,194.609,100.642,193.286,101.364Z" transform="translate(3.481 11.814)"/>
  <path id="Path_109" data-name="Path 109" d="M146.349,109.419a1.76,1.76,0,0,0,.722-2.285,32.3,32.3,0,0,0-9.141-9.622A31.545,31.545,0,0,0,119.769,92.1a43.955,43.955,0,0,0-11.546,1.684c-14.072,3.969-20.807,12.629-23.934,19.244A35.8,35.8,0,0,0,80.8,126.618a1.644,1.644,0,0,0,1.684,1.684.723.723,0,0,0,.481-.12,1.7,1.7,0,0,0,1.2-1.684,32.9,32.9,0,0,1,3.247-12.268c4.089-8.539,11.426-14.313,21.769-17.2a38.427,38.427,0,0,1,10.7-1.564,28.362,28.362,0,0,1,16,4.691,27.611,27.611,0,0,1,8.3,8.419,1.632,1.632,0,0,0,1.564.842C145.748,109.66,145.988,109.54,146.349,109.419Z" transform="translate(16.381 18.672)"/>
  <g id="Group_19" data-name="Group 19" transform="translate(53.837 53.3)">
    <path id="Path_110" data-name="Path 110" d="M100.855,51.152a70.694,70.694,0,0,1,67.233,18.883,2.381,2.381,0,0,0,3.368-3.368A75.109,75.109,0,0,0,44.808,102.509a2.389,2.389,0,0,0,1.8,2.887c.241,0,.361.12.6.12a2.318,2.318,0,0,0,2.285-1.8A69.761,69.761,0,0,1,100.855,51.152Z" transform="translate(-44.762 -44.316)"/>
    <path id="Path_111" data-name="Path 111" d="M189.848,106.5a2.5,2.5,0,0,0-2.526,2.285A70.371,70.371,0,0,1,77.873,165.073l39.81-15.636a2.4,2.4,0,0,0-1.8-4.45L73.3,161.826A71.129,71.129,0,0,1,58.63,145.95a2.419,2.419,0,0,0-3.969,2.766,74.95,74.95,0,0,0,13.591,15.275l-17.8,6.976a2.441,2.441,0,0,0-1.323,3.127,2.466,2.466,0,0,0,2.285,1.564,2.047,2.047,0,0,0,.842-.12L72.7,167.479a75.838,75.838,0,0,0,44.621,14.553,73.913,73.913,0,0,0,18.282-2.285,75.286,75.286,0,0,0,56.769-70.48A2.678,2.678,0,0,0,189.848,106.5Z" transform="translate(-43.91 -31.709)"/>
  </g>
  <path id="Path_112" data-name="Path 112" d="M92.813,158.022a2.466,2.466,0,0,1-2.285-1.564,2.441,2.441,0,0,1,1.323-3.127l25.618-10.1a2.4,2.4,0,0,1,1.8,4.45l-25.618,10.1A1.145,1.145,0,0,1,92.813,158.022Z" transform="translate(18.319 29.003)"/>
  <path id="Path_113" data-name="Path 113" d="M128.091,8.419A119.672,119.672,0,1,1,8.419,128.091,119.676,119.676,0,0,1,128.091,8.419m0-8.419C57.491,0,0,57.491,0,128.091S57.491,256.182,128.091,256.182s128.091-57.491,128.091-128.091S198.692,0,128.091,0Z"/>
</svg>
