<svg id="Group_26" data-name="Group 26" xmlns="http://www.w3.org/2000/svg" viewBox="0 0 117.398 117.398">
  <defs>
    <style>
      .cls-1 {
        fill: #ff5f00;
      }
    </style>
  </defs>
  <g id="Group_17" data-name="Group 17" transform="translate(13.393 10.803)">
    <path id="Path_83" data-name="Path 83" class="cls-1" d="M30.859,68.5a3.925,3.925,0,0,1,2.15,5.236l-1.268,2.976-7.441-3.2,1.268-2.976A3.9,3.9,0,0,1,30.859,68.5Zm-.717,1.654a2.05,2.05,0,0,0-2.921,1.1L26.67,72.52l4.189,1.819.551-1.268A2.111,2.111,0,0,0,30.142,70.15Z" transform="translate(-24.3 -41.379)"/>
    <path id="Path_84" data-name="Path 84" class="cls-1" d="M36.268,59.779a4.222,4.222,0,1,1,5.9-.937A4.182,4.182,0,0,1,36.268,59.779Zm3.858-5.346a2.38,2.38,0,0,0-3.362.5,2.3,2.3,0,0,0,.551,3.307,2.38,2.38,0,0,0,3.362-.5A2.218,2.218,0,0,0,40.127,54.432Z" transform="translate(-28.883 -34.205)"/>
    <path id="Path_85" data-name="Path 85" class="cls-1" d="M48.749,48.541l.551-1.764a1.806,1.806,0,0,0,2.039-.331c.661-.606.551-.992.386-1.213-.331-.386-.827-.22-1.929.386-1.1.551-2.37.937-3.417-.22a2.507,2.507,0,0,1,.331-3.638,3.137,3.137,0,0,1,3.417-.661l-.551,1.709a1.442,1.442,0,0,0-1.653.276c-.441.386-.441.827-.22,1.047.276.276.551.331,1.764-.276,1.157-.551,2.48-1.157,3.638.055,1.047,1.157.772,2.7-.551,3.858A3.174,3.174,0,0,1,48.749,48.541Z" transform="translate(-33.923 -29.14)"/>
    <path id="Path_86" data-name="Path 86" class="cls-1" d="M60.208,32.488l-1.764,1.157,3.472,5.291-1.543,1.047L56.9,34.693l-1.709,1.1L54.2,34.307,59.216,31Z" transform="translate(-37.72 -24.717)"/>
    <path id="Path_87" data-name="Path 87" class="cls-1" d="M74.881,32.218l-2.756,1.213.165,1.323-1.874.827L69.7,27.037l2.15-.937,5.787,6.338-1.874.772ZM73.668,30.84l-2.039-2.315.331,3.087Z" transform="translate(-44.677 -22.517)"/>
    <path id="Path_88" data-name="Path 88" class="cls-1" d="M80.5,22.009l1.984-.441,3.087,5.4.441-6.228L88,20.3l-.772,8.488-2.315.5Z" transform="translate(-49.524 -19.914)"/>
    <path id="Path_89" data-name="Path 89" class="cls-1" d="M103.04,27.757l-2.7-3.693.11,3.748-1.874.055-.276-8.1,1.874-.055.11,3.527,2.37-3.583,2.094-.055-2.59,4.024,2.976,4.079Z" transform="translate(-57.514 -19.6)"/>
    <path id="Path_90" data-name="Path 90" class="cls-1" d="M117.167,27.765l-2.976-.5-.606,1.213-1.984-.331,4.079-7.551,2.315.386,1.378,8.433-2.039-.331Zm-.276-1.819-.441-3.087-1.433,2.756Z" transform="translate(-63.483 -20.049)"/>
    <path id="Path_91" data-name="Path 91" class="cls-1" d="M139.634,33.241a2.894,2.894,0,0,1-3.8,1.543,2.2,2.2,0,0,1-1.268-1.378l-.22.5-1.543-.772,3.527-7.331,1.543.772-1.213,2.59a2.262,2.262,0,0,1,1.874.11A2.926,2.926,0,0,1,139.634,33.241Zm-1.543-.772a1.313,1.313,0,0,0-.606-1.874,1.36,1.36,0,0,0-1.874.661,1.313,1.313,0,0,0,.606,1.874A1.284,1.284,0,0,0,138.091,32.469Z" transform="translate(-72.998 -22.383)"/>
    <path id="Path_92" data-name="Path 92" class="cls-1" d="M151.384,39.383l-4.85,3.417c-1.6,1.1-2.866,1.1-4.134.11l.937-1.323a1.271,1.271,0,0,0,1.709.055l1.323-5.842,1.543,1.1-.992,3.638,2.921-2.26Z" transform="translate(-77.307 -26.871)"/>
  </g>
  <path id="Path_93" data-name="Path 93" class="cls-1" d="M61.841,116.627a54.814,54.814,0,1,1,54.841-54.786A54.866,54.866,0,0,1,61.841,116.627Zm0-108.855A54.069,54.069,0,1,0,115.91,61.841,54.125,54.125,0,0,0,61.841,7.772Z" transform="translate(-3.142 -3.142)"/>
  <g id="Group_18" data-name="Group 18" transform="translate(34.601 50.707)">
    <path id="Path_94" data-name="Path 94" class="cls-1" d="M63.727,175.612l1.268-2.2-.331-.165c-2.2-1.268-2.37-2.866-1.047-5.071l.441-.772,1.653.937-.441.772c-.606,1.1-.992,1.874.276,2.59l.331.165,1.488-2.59,1.653.937-3.638,6.338Z" transform="translate(-62.778 -125.842)"/>
    <path id="Path_95" data-name="Path 95" class="cls-1" d="M78.083,176.8c-.992-.386-1.543-.606-2.535-.992l-.386.992,2.315.882c-.22.5-.386,1.047-.606,1.543l-2.315-.882a7.867,7.867,0,0,0-.441,1.213c.992.386,1.6.606,2.646.992-.22.5-.386,1.047-.606,1.543L71.8,180.434c.882-2.315,1.764-4.575,2.646-6.834,1.6.606,2.646,1.047,4.3,1.653A9.992,9.992,0,0,0,78.083,176.8Z" transform="translate(-66.828 -128.625)"/>
    <path id="Path_96" data-name="Path 96" class="cls-1" d="M87.834,180.442a2.4,2.4,0,1,1-.992,4.685l-3.142-.661,1.488-7.165,5.126,1.1-.331,1.654-3.307-.717-.165.882Zm-1.653,1.323-.276,1.378c.441.11.882.165,1.323.276a.706.706,0,1,0,.276-1.378Z" transform="translate(-72.169 -130.286)"/>
    <path id="Path_97" data-name="Path 97" class="cls-1" d="M97.992,186.665l1.268-2.315L97,179.776V179.5l2.094.11,1.268,2.756h.055l1.378-2.646,2.039.11v.276l-3.8,6.89-2.039-.11Z" transform="translate(-78.138 -131.273)"/>
    <path id="Path_98" data-name="Path 98" class="cls-1" d="M117.3,185.9l.055.276-2.094.276-1.488-1.984-.992.11.276,2.15c-.606.055-1.268.165-1.874.22-.276-2.425-.606-4.85-.882-7.275,1.047-.11,2.15-.276,3.2-.386a2.6,2.6,0,0,1,2.094,4.52Zm-3.583-5.016-1.323.165c.055.606.165,1.213.22,1.819l1.323-.165C114.93,182.588,114.764,180.77,113.717,180.88Z" transform="translate(-84.108 -131.165)"/>
    <path id="Path_99" data-name="Path 99" class="cls-1" d="M123.635,180.882c-1.488-4.85,5.677-7.055,7.165-2.26C132.344,183.472,125.179,185.732,123.635,180.882Zm5.346-1.653a1.853,1.853,0,1,0-3.527,1.1A1.853,1.853,0,1,0,128.982,179.228Z" transform="translate(-90.002 -129.678)"/>
    <path id="Path_100" data-name="Path 100" class="cls-1" d="M138.372,175.414c-2.425-4.464,4.189-8.047,6.614-3.583S140.8,179.879,138.372,175.414Zm4.905-2.7a1.853,1.853,0,1,0-3.252,1.764A1.853,1.853,0,1,0,143.277,172.713Z" transform="translate(-96.471 -126.911)"/>
    <path id="Path_101" data-name="Path 101" class="cls-1" d="M153.716,158.741l.5-.441,4.74,5.622c-.5.386-.992.827-1.488,1.213l-2.094-2.48-.11,2.26-.165.11-2.26-.22,2.094,2.48c-.5.386-.992.827-1.488,1.213l-4.74-5.622.551-.441,4.244.551Z" transform="translate(-101.343 -121.758)"/>
    <path id="Path_102" data-name="Path 102" class="cls-1" d="M168.671,151.071l1.929,1.378c-.386.5-.772,1.047-1.1,1.543l-5.9-4.3c.882-1.213,1.819-2.48,2.7-3.693.5.386.827.606,1.378.992l-1.543,2.15,1.268.937,1.378-1.929c.5.386.827.606,1.378.992Z" transform="translate(-108.031 -116.237)"/>
    <path id="Path_103" data-name="Path 103" class="cls-1" d="M177.559,141.994l-1.323,2.535.606.827-.827,1.6-.22-.11-4.8-6.228.386-.717,7.882.386.22.11-.827,1.6Zm-3.8-.386,1.323,1.654.772-1.488Z" transform="translate(-111.352 -113.499)"/>
    <path id="Path_104" data-name="Path 104" class="cls-1" d="M176.674,122.061l.22-.661,7.055,2.15c-.165.606-.386,1.213-.551,1.819l-3.142-.937,1.1,1.984-.055.22-2.039.992,3.142.937c-.165.606-.386,1.213-.551,1.819l-7.055-2.15.22-.661,3.858-1.819Z" transform="translate(-113.057 -105.196)"/>
    <path id="Path_105" data-name="Path 105" class="cls-1" d="M184.818,114.117l1.653.22-.5,3.693-1.654-.22.11-.937-4.023-.551-.11.827-1.6-.22.5-3.527,1.6.22-.11.827,4.024.551Z" transform="translate(-114.808 -101.605)"/>
    <path id="Path_106" data-name="Path 106" class="cls-1" d="M185.377,106.346l.055-2.646c.606,0,1.047,0,1.709.055-.055,1.488-.055,3.031-.11,4.52l-7.331-.165c0-.606,0-1.268.055-1.874C183.558,106.29,182.29,106.29,185.377,106.346Z" transform="translate(-115.257 -97.251)"/>
    <path id="Path_107" data-name="Path 107" class="cls-1" d="M186.206,93.709l.22,1.819-3.087.331-3.693,2.866-.276.055-.22-1.984,2.26-1.6v-.055l-2.59-1.047-.22-2.039.276-.055,4.244,2.039Z" transform="translate(-114.763 -92)"/>
  </g>
  <path id="Path_108" data-name="Path 108" class="cls-1" d="M106.862,58.508a1.445,1.445,0,0,0-1.488-.055l-6.008,3.142a.9.9,0,0,0,.827,1.6l5.512-2.866-.055.386a5.212,5.212,0,0,1-2.811,4.3l-.055.055-.386.22L90.492,71.515a.9.9,0,1,0,.827,1.6l10.693-5.622v.5a3.74,3.74,0,0,1-1.654,3.583l-1.709.882h0l-8.323,4.354a.973.973,0,0,0-.441.5A6.763,6.763,0,0,0,85.2,74.6v-.5a5.277,5.277,0,0,1,2.811-4.575l7.165-3.748a.9.9,0,1,0-.827-1.6l-7.165,3.748a6.925,6.925,0,0,0-3.583,4.63,8.171,8.171,0,0,0-2.15-1.709,6.86,6.86,0,0,0-4.85-.717l-.331.055-.22-.276a6.732,6.732,0,0,0-4.134-2.26,6.818,6.818,0,0,0-2.37.055,6.513,6.513,0,0,0-2.37,1.047l-.331.22-.331-.165a6.13,6.13,0,0,0-4.354-.606,1.4,1.4,0,0,0-.386.11,6.062,6.062,0,0,0-3.748,2.866l-.165.331-.386-.055a8,8,0,0,0-1.984.11,6.519,6.519,0,0,0-2.7,1.323,6.639,6.639,0,0,0-2.37,4.079l-.11.441-.331.11a6.87,6.87,0,0,0-3.8,3.142,7.587,7.587,0,0,0-1.047,4.575l.055.331-.276.22a6.927,6.927,0,0,0-5.732-2.866L18.62,83.2a1.469,1.469,0,0,0-1.213,2.26l.5.772a7.027,7.027,0,0,0,5.9,3.252l.606,1.213a5.484,5.484,0,0,0,4.8,3.362H30.58l.331,1.047c.717,2.2,2.094,3.527,3.583,3.472l10.141-.165a6.773,6.773,0,0,0,1.157,4.354c.772,1.1,2.59,2.866,6.228,2.2a2.387,2.387,0,0,1,.276-.055c.165-.055.276-.055.441-.11a48.376,48.376,0,0,0,5.346-2.094,100.306,100.306,0,0,1,11.96-4.464c.937-.276,1.929-.5,2.976-.717,3.417-.772,6.834-1.213,9.59-1.6,2.094-.276,3.693-.5,4.961-.772.551-.11.992-.276,1.378-.386,3.472-1.323,4.134-3.748,4.189-5.071a6.868,6.868,0,0,0-1.6-4.8l-.22-.22.055-.276a5.949,5.949,0,0,0,.165-1.047l7.11-3.748c1.323-.717,1.874-2.48,1.488-4.74l-.22-1.1,1.268-.661a5.465,5.465,0,0,0,2.646-5.236l-.055-1.378a7,7,0,0,0,3.638-5.677l.055-.937A1.384,1.384,0,0,0,106.862,58.508ZM34.494,96.814c-.661,0-1.433-.882-1.874-2.26L32.454,94l8.212-.11a.882.882,0,1,0,0-1.764l-9.37.11h0l-2.039.055a3.73,3.73,0,0,1-3.2-2.37l-.22-.441,12.071-.165a.882.882,0,0,0,0-1.764l-13.448.22-.441-.055h-.11a5.337,5.337,0,0,1-4.52-2.425l-.22-.331,20.007-.276a5.322,5.322,0,0,1,4.464,2.37,7.26,7.26,0,0,0-1.433,4.52,9.287,9.287,0,0,0,1.764,5.181Zm53.684-4.079a4.074,4.074,0,0,1-1.047.276c-1.157.276-2.866.5-4.8.772a97.691,97.691,0,0,0-9.756,1.653c-1.047.22-2.094.5-3.087.772a92.776,92.776,0,0,0-12.236,4.575,43.523,43.523,0,0,1-5.4,2.094.2.2,0,0,0-.165.055,3.788,3.788,0,0,1-4.024-1.268,4.487,4.487,0,0,1-.606-3.913l.661-1.1-1.157-.5c-.055,0-.11-.055-.165-.11a6.629,6.629,0,0,1-1.984-4.575,10.737,10.737,0,0,1,.11-1.378,4.321,4.321,0,0,1,1.378-2.37,3.39,3.39,0,0,1,1.047-.661l.882-.441L47.5,85.68a4.625,4.625,0,0,1,.551-3.913,4.854,4.854,0,0,1,2.866-2.26c.055,0,.165-.055.22-.055a.938.938,0,0,1,.386-.055l1.047-.165-.11-1.047a4.311,4.311,0,0,1,1.654-3.527,4.827,4.827,0,0,1,1.764-.882,4.528,4.528,0,0,1,2.26.11l1.157.386.165-1.157h0a3.587,3.587,0,0,1,2.756-2.535c.11,0,.165-.055.22-.055a3.71,3.71,0,0,1,3.417.827h0l.772.882.827-.882a4.588,4.588,0,0,1,2.315-1.378,5.13,5.13,0,0,1,1.6-.055,4.423,4.423,0,0,1,3.252,2.2l.441.937L76,72.673a4.85,4.85,0,0,1,.827-.276,4.928,4.928,0,0,1,3.362.5,4.635,4.635,0,0,1,2.48,3.087l.165.992.827-.055h.165a4.289,4.289,0,0,1,1.874.22,4.645,4.645,0,0,1,2.59,2.26,6.684,6.684,0,0,1,.882,3.2,3.345,3.345,0,0,1-.331,1.874l-.22.276-.551.772,1.1.606a4.471,4.471,0,0,1,1.488,3.693C90.823,91.026,89.886,92.074,88.177,92.735Zm9.7-14.716-6.338,3.307A10.287,10.287,0,0,0,90.6,78.46a.819.819,0,0,0,.5-.11l7.275-3.8.11.551C98.7,76.531,98.484,77.688,97.878,78.019Z" transform="translate(-7.707 -26.154)"/>
  <path id="Path_109" data-name="Path 109" class="cls-1" d="M110.839,100.037a.807.807,0,0,0,.331-1.047,14.8,14.8,0,0,0-4.189-4.409,14.456,14.456,0,0,0-8.323-2.48,20.143,20.143,0,0,0-5.291.772c-6.449,1.819-9.535,5.787-10.968,8.819a16.406,16.406,0,0,0-1.6,6.228.753.753,0,0,0,.772.772.331.331,0,0,0,.22-.055.778.778,0,0,0,.551-.772,15.077,15.077,0,0,1,1.488-5.622c1.874-3.913,5.236-6.559,9.976-7.882a17.61,17.61,0,0,1,4.905-.717,13,13,0,0,1,7.331,2.15,12.653,12.653,0,0,1,3.8,3.858.748.748,0,0,0,.717.386C110.563,100.147,110.673,100.092,110.839,100.037Z" transform="translate(-36.266 -41.338)"/>
  <g id="Group_19" data-name="Group 19" transform="translate(24.671 24.425)">
    <path id="Path_110" data-name="Path 110" class="cls-1" d="M70.467,47.449a32.4,32.4,0,0,1,30.81,8.653,1.091,1.091,0,1,0,1.543-1.543A34.42,34.42,0,0,0,44.783,70.983a1.1,1.1,0,0,0,.827,1.323c.11,0,.165.055.276.055a1.062,1.062,0,0,0,1.047-.827A31.969,31.969,0,0,1,70.467,47.449Z" transform="translate(-44.762 -44.316)"/>
    <path id="Path_111" data-name="Path 111" class="cls-1" d="M113.524,106.5a1.145,1.145,0,0,0-1.157,1.047,32.248,32.248,0,0,1-50.156,25.795l18.244-7.165a1.1,1.1,0,0,0-.827-2.039l-19.511,7.716a32.6,32.6,0,0,1-6.724-7.275,1.109,1.109,0,1,0-1.819,1.268,34.347,34.347,0,0,0,6.228,7l-8.157,3.2a1.119,1.119,0,0,0-.606,1.433,1.13,1.13,0,0,0,1.047.717.938.938,0,0,0,.386-.055l9.37-3.693a34.753,34.753,0,0,0,20.448,6.669,33.871,33.871,0,0,0,8.378-1.047,34.5,34.5,0,0,0,26.015-32.3A1.227,1.227,0,0,0,113.524,106.5Z" transform="translate(-46.647 -72.226)"/>
  </g>
  <path id="Path_112" data-name="Path 112" class="cls-1" d="M91.485,149.917a1.13,1.13,0,0,1-1.047-.717,1.119,1.119,0,0,1,.606-1.433l11.74-4.63a1.1,1.1,0,0,1,.827,2.039l-11.74,4.63A.525.525,0,0,1,91.485,149.917Z" transform="translate(-40.557 -64.211)"/>
  <path id="Path_113" data-name="Path 113" class="cls-1" d="M58.7,3.858A54.841,54.841,0,1,1,3.858,58.7,54.843,54.843,0,0,1,58.7,3.858M58.7,0a58.7,58.7,0,1,0,58.7,58.7A58.783,58.783,0,0,0,58.7,0Z"/>
</svg>
