<svg xmlns="http://www.w3.org/2000/svg" viewBox="0 0 153 43">
  <defs>
    <style>
      .cls-1 {
        fill: #fff;
      }

      .cls-2 {
        fill: #2f2f2f;
        font-size: 6px;
        font-family: GothamPro, Gotham Pro;
      }
    </style>
  </defs>
  <g id="Group_72" data-name="Group 72" transform="translate(-144 -1827)">
    <rect id="Rectangle_80" data-name="Rectangle 80" class="cls-1" width="153" height="43" transform="translate(144 1827)"/>
    <g id="playstore" transform="translate(138.009 1840)">
      <g id="Group_65" data-name="Group 65" transform="translate(23.271 0)">
        <g id="Group_64" data-name="Group 64" transform="translate(0 0)">
          <path id="Path_143" data-name="Path 143" d="M62.082.265A1.655,1.655,0,0,0,60.8.044l7.617,7.617,2.469-2.469Z" transform="translate(-60.802 0)"/>
        </g>
      </g>
      <g id="Group_67" data-name="Group 67" transform="translate(21.991 0.663)">
        <g id="Group_66" data-name="Group 66" transform="translate(0)">
          <path id="Path_144" data-name="Path 144" d="M22.326,20.116a1.655,1.655,0,0,0-.335,1V34.68a1.655,1.655,0,0,0,.335,1l7.78-7.78Z" transform="translate(-21.991 -20.116)"/>
        </g>
      </g>
      <g id="Group_69" data-name="Group 69" transform="translate(31.67 5.754)">
        <g id="Group_68" data-name="Group 68">
          <path id="Path_145" data-name="Path 145" d="M320.359,175.691l-2.219-1.241-2.69,2.69,2.69,2.69,2.219-1.242a1.66,1.66,0,0,0,0-2.9Z" transform="translate(-315.451 -174.45)"/>
        </g>
      </g>
      <g id="Group_71" data-name="Group 71" transform="translate(23.272 9.225)">
        <g id="Group_70" data-name="Group 70" transform="translate(0)">
          <path id="Path_146" data-name="Path 146" d="M68.431,279.711l-7.616,7.616a1.644,1.644,0,0,0,1.28-.221L70.9,282.18Z" transform="translate(-60.815 -279.711)"/>
        </g>
      </g>
    </g>
    <text id="Загрузить_на" data-name="Загрузить на" class="cls-2" transform="translate(189 1840)"><tspan x="0" y="0">Загрузить на</tspan></text>
    <path id="path66" d="M361.918,162.646a4.487,4.487,0,1,0,4.508,4.487,4.424,4.424,0,0,0-4.508-4.487Zm0,7.211a2.724,2.724,0,1,1,2.534-2.724,2.6,2.6,0,0,1-2.534,2.724Zm-9.83-7.211a4.487,4.487,0,1,0,4.5,4.487,4.424,4.424,0,0,0-4.508-4.487Zm0,7.211a2.724,2.724,0,1,1,2.523-2.724,2.6,2.6,0,0,1-2.534,2.724Zm-11.709-5.828v1.9h4.561a3.981,3.981,0,0,1-1.056,2.4,4.667,4.667,0,0,1-3.516,1.394,5.068,5.068,0,0,1,0-10.136,4.857,4.857,0,0,1,3.453,1.362l1.341-1.341a6.641,6.641,0,0,0-4.783-1.974,6.979,6.979,0,1,0,0,13.948,6.164,6.164,0,0,0,6.515-6.409,6.2,6.2,0,0,0-.105-1.193h-6.409Zm47.841,1.478a4.149,4.149,0,0,0-8.067,1.626,4.392,4.392,0,0,0,4.456,4.487,4.466,4.466,0,0,0,3.738-1.985l-1.531-1.056a2.566,2.566,0,0,1-2.207,1.246,2.281,2.281,0,0,1-2.175-1.362l6.008-2.481Zm-6.124,1.5a2.46,2.46,0,0,1,2.344-2.619,1.742,1.742,0,0,1,1.668.95Zm-4.878,4.35h1.974v-13.2h-1.974Zm-3.231-7.708h-.074a3.167,3.167,0,0,0-2.365-1.056,4.5,4.5,0,0,0,0,8.985,3.062,3.062,0,0,0,2.365-1.056h.063v.729c0,1.721-.919,2.64-2.4,2.64a2.481,2.481,0,0,1-2.26-1.594l-1.721.718a4.276,4.276,0,0,0,3.98,2.65c2.312,0,4.223-1.362,4.223-4.677V162.91h-1.816Zm-2.26,6.208a2.735,2.735,0,0,1,0-5.448,2.732,2.732,0,0,1-.011,5.448Zm25.742-11.7h-4.72v13.2h1.974v-5h2.756a4.107,4.107,0,1,0-.011-8.193Zm0,6.335h-2.756V160h2.8a2.26,2.26,0,0,1,0,4.519Zm12.174-1.9a3.7,3.7,0,0,0-3.516,2.017l1.753.729a1.869,1.869,0,0,1,1.795-.971,1.9,1.9,0,0,1,2.112,1.7v.137a4.361,4.361,0,0,0-2.059-.507c-1.89,0-3.8,1.056-3.8,2.967a3.051,3.051,0,0,0,3.273,2.9,2.777,2.777,0,0,0,2.534-1.267h.063v1.056h1.9v-5.079c0-2.312-1.753-3.653-4-3.653Zm-.243,7.233a1.373,1.373,0,0,1-1.542-1.119c0-1.056,1.119-1.4,2.112-1.4a3.505,3.505,0,0,1,1.795.443,2.386,2.386,0,0,1-2.312,2.112Zm11.224-6.916-2.259,5.723H418.3l-2.344-5.723h-2.112l3.516,8-2.006,4.445h2.059l5.406-12.448h-2.186Zm-17.749,8.447h1.974v-13.2h-1.974Z" transform="translate(-144.243 1688.033)"/>
  </g>
</svg>
