<svg xmlns="http://www.w3.org/2000/svg" viewBox="0 0 339.5 43.367">
  <defs>
    <style>
      .cls-1 {
        fill: #fff;
      }

      .cls-2 {
        fill: #ec6925;
      }
    </style>
  </defs>
  <g id="Group_27" data-name="Group 27" transform="translate(-470 -40)">
    <path id="Path_1" data-name="Path 1" class="cls-1" d="M21.921,43.073V28.534H19.8C5.257,28.534,0,21.1,0,6.445V1.3H10.961V6.445c0,7.1.559,11.967,8.836,11.967h2.069V1.3H32.714V43.073Z" transform="translate(470 39.413)"/>
    <path id="Path_2" data-name="Path 2" class="cls-1" d="M103.715,10.907H88.225v5.928h14.2v9.507h-14.2v7.326h15.994v9.507H77.6V1.4h26.115Z" transform="translate(435.795 39.369)"/>
    <path id="Path_3" data-name="Path 3" class="cls-1" d="M160.1,15.9c20.02,0,20.02,27.122,0,27.178H141.7V1.3h30.03v9.563H152.381v5.089H160.1Zm-7.717,9.451v8.165h7.661a4.1,4.1,0,1,0,0-8.165h-7.661Z" transform="translate(407.541 39.413)"/>
    <path id="Path_4" data-name="Path 4" class="cls-1" d="M214.449,41.955l6.543-13.477L206.9,2.922V1.3h11.967l7.885,15.378h.28L234.19,1.3h11.576V2.922l-19.8,40.152h-11.52Z" transform="translate(378.802 39.413)"/>
    <path id="Path_5" data-name="Path 5" class="cls-2" d="M322.042,41.508v1.566H310.075l-7.158-12.3h-5.536v12.3H286.7V1.3h18.342c16.441.056,19.4,19.8,8.836,27.01ZM304.986,10.863c-2.516-.056-5.145,0-7.661,0V21.32h7.661C310.8,21.264,311.082,10.919,304.986,10.863Z" transform="translate(343.627 39.413)"/>
    <path id="Path_6" data-name="Path 6" class="cls-2" d="M356.8,21.709c0-28.911,42.892-28.911,42.892,0C399.636,50.62,356.8,50.62,356.8,21.709Zm31.931,0c0-15.043-20.971-15.043-20.971,0C367.761,36.863,388.731,36.863,388.731,21.709Z" transform="translate(312.728 39.975)"/>
    <path id="Path_7" data-name="Path 7" class="cls-2" d="M443.3,21.709c0-28.911,42.892-28.911,42.892,0C486.136,50.62,443.3,50.62,443.3,21.709Zm31.931,0c0-15.043-20.971-15.043-20.971,0C454.261,36.863,475.231,36.863,475.231,21.709Z" transform="translate(274.6 39.975)"/>
    <path id="Path_8" data-name="Path 8" class="cls-2" d="M571.208,1.056h3.8V43h-10.9V24.319l-8.891,9.339H554.04L545.2,24.319V42.941H534.3V1h3.914L554.6,19.175Z" transform="translate(234.489 39.545)"/>
  </g>
</svg>
