<svg xmlns="http://www.w3.org/2000/svg" viewBox="0 0 73.844 73.88">
  <defs>
    <style>
      .cls-1 {
        fill: #fff;
      }

      .cls-2 {
        fill: #f07f12;
      }
    </style>
  </defs>
  <g id="Group_30" data-name="Group 30" transform="translate(-144 -1871)">
    <path id="Path_34" data-name="Path 34" class="cls-1" d="M36.922,73.88A36.94,36.94,0,1,1,73.844,36.922,36.96,36.96,0,0,1,36.922,73.88Zm0-70.59A33.632,33.632,0,1,0,70.554,36.922,33.684,33.684,0,0,0,36.922,3.29Z" transform="translate(144 1871)"/>
    <path id="Path_35" data-name="Path 35" class="cls-2" d="M140.4,115" transform="translate(54.925 1798.04)"/>
    <path id="Path_36" data-name="Path 36" class="cls-2" d="M145.028,139.5H137.9l.366.585h7.165Z" transform="translate(56.511 1782.496)"/>
    <path id="Path_37" data-name="Path 37" class="cls-2" d="M100.009,113.5H94.452V123H89.7v.585h5.593v-9.5h5.081Z" transform="translate(87.091 1798.991)"/>
    <path id="Path_38" data-name="Path 38" class="cls-2" d="M68.939,112.421h-5.3A15.055,15.055,0,0,1,59.8,111.8a12.591,12.591,0,0,0,5.63,1.206h3.546v-.585Z" transform="translate(106.061 1800.07)"/>
    <path id="Path_39" data-name="Path 39" class="cls-1" d="M76.873,79.717h0s5.959-2.742,5.666-9.285a9.345,9.345,0,0,0-7.64-9.285H58.375L58.3,73.795H53.038c-4.167-.219-4.46-2.961-4.46-6.946V61H42.4v5.812c0,8.408,2.851,12.722,10.638,12.9h5.337v9.5h5.557v-9.5h6.288l6.1,9.5h7.165Zm-2.925-5.922H64.041V66.812h9.8a3.244,3.244,0,0,1,3.107,3.509A3.136,3.136,0,0,1,73.948,73.795Z" transform="translate(117.1 1832.299)"/>
    <path id="Path_40" data-name="Path 40" class="cls-2" d="M138.6,87.576l7.238,10.382h.439l-6.726-9.687h0a10.122,10.122,0,0,0,5.337-9.139,9.7,9.7,0,0,0-2.12-6.032A10.688,10.688,0,0,1,138.6,87.576" transform="translate(56.067 1824.623)"/>
  </g>
</svg>
