<svg xmlns="http://www.w3.org/2000/svg" viewBox="0 0 17.875 39">
  <defs>
    <style>
      .cls-1 {
        fill: #707070;
      }
    </style>
  </defs>
  <g id="paperclip" transform="translate(-138.667)">
    <g id="Group_54" data-name="Group 54" transform="translate(138.667)">
      <path id="Path_141" data-name="Path 141" class="cls-1" d="M147.6,0a8.948,8.948,0,0,0-8.937,8.937v22.75a7.313,7.313,0,1,0,14.625,0v-19.5a5.688,5.688,0,1,0-11.375,0V26.813a.813.813,0,0,0,1.625,0V12.188a4.062,4.062,0,0,1,8.125,0v19.5a5.687,5.687,0,1,1-11.375,0V8.937a7.313,7.313,0,1,1,14.625,0V26.813a.813.813,0,0,0,1.625,0V8.937A8.948,8.948,0,0,0,147.6,0Z" transform="translate(-138.667)"/>
    </g>
  </g>
</svg>
