<svg xmlns="http://www.w3.org/2000/svg" viewBox="0 0 96.699 35.219">
  <defs>
    <style>
      .cls-1 {
        fill: #fff;
      }
    </style>
  </defs>
  <g id="reserved" transform="translate(0 -162.761)">
    <g id="Group_89" data-name="Group 89" transform="translate(20.116 173.944)">
      <g id="Group_88" data-name="Group 88">
        <path id="Path_149" data-name="Path 149" class="cls-1" d="M112.536,231.773h-2.973v-1.846h1.347a1.527,1.527,0,1,0,0-3.054h-1.347v-1.846h2.973a1.527,1.527,0,1,0,0-3.054h-4.5a1.527,1.527,0,0,0-1.527,1.527v9.8a1.527,1.527,0,0,0,1.527,1.527h4.5a1.527,1.527,0,0,0,0-3.054Z" transform="translate(-106.509 -221.973)"/>
      </g>
    </g>
    <g id="Group_91" data-name="Group 91" transform="translate(29.227 173.944)">
      <g id="Group_90" data-name="Group 90" transform="translate(0 0)">
        <path id="Path_150" data-name="Path 150" class="cls-1" d="M158.727,226.872a.923.923,0,0,1,0-1.846h2.45a1.527,1.527,0,0,0,0-3.054h-2.45a3.977,3.977,0,0,0,0,7.954.923.923,0,1,1,0,1.846h-2.45a1.527,1.527,0,0,0,0,3.054h2.45a3.977,3.977,0,1,0,0-7.954Z" transform="translate(-154.75 -221.972)"/>
      </g>
    </g>
    <g id="Group_93" data-name="Group 93" transform="translate(39.248 173.944)">
      <g id="Group_92" data-name="Group 92">
        <path id="Path_151" data-name="Path 151" class="cls-1" d="M213.838,231.773h-2.973v-1.846h1.347a1.527,1.527,0,1,0,0-3.054h-1.347v-1.846h2.973a1.527,1.527,0,1,0,0-3.054h-4.5a1.527,1.527,0,0,0-1.527,1.527v9.8a1.527,1.527,0,0,0,1.527,1.527h4.5a1.527,1.527,0,0,0,0-3.054Z" transform="translate(-207.811 -221.973)"/>
      </g>
    </g>
    <g id="Group_95" data-name="Group 95" transform="translate(69.773 173.944)">
      <g id="Group_94" data-name="Group 94">
        <path id="Path_152" data-name="Path 152" class="cls-1" d="M375.461,231.773h-2.973v-1.846h1.347a1.527,1.527,0,1,0,0-3.054h-1.347v-1.846h2.973a1.527,1.527,0,1,0,0-3.054h-4.5a1.527,1.527,0,0,0-1.527,1.527v9.8a1.527,1.527,0,0,0,1.527,1.527h4.5a1.527,1.527,0,0,0,0-3.054Z" transform="translate(-369.434 -221.973)"/>
      </g>
    </g>
    <g id="Group_97" data-name="Group 97" transform="translate(8.567 173.944)">
      <g id="Group_96" data-name="Group 96">
        <path id="Path_153" data-name="Path 153" class="cls-1" d="M52.156,229.764a4.208,4.208,0,0,0-2.208-7.793H46.886a1.527,1.527,0,0,0-1.527,1.527v9.8a1.527,1.527,0,0,0,3.054,0v-2.9h.62l1.932,3.621a1.527,1.527,0,0,0,2.694-1.438Zm-2.208-2.422H48.413v-2.318h1.536a1.159,1.159,0,0,1,0,2.318Z" transform="translate(-45.359 -221.971)"/>
      </g>
    </g>
    <g id="Group_99" data-name="Group 99" transform="translate(48.87 173.944)">
      <g id="Group_98" data-name="Group 98">
        <path id="Path_154" data-name="Path 154" class="cls-1" d="M265.55,229.764a4.208,4.208,0,0,0-2.208-7.793H260.28a1.527,1.527,0,0,0-1.527,1.527v9.8a1.527,1.527,0,1,0,3.054,0v-2.9h.62l1.932,3.621a1.527,1.527,0,0,0,2.694-1.438Zm-2.208-2.422h-1.536v-2.318h1.536a1.159,1.159,0,0,1,0,2.318Z" transform="translate(-258.753 -221.971)"/>
      </g>
    </g>
    <g id="Group_101" data-name="Group 101" transform="translate(58.346 173.943)">
      <g id="Group_100" data-name="Group 100">
        <path id="Path_155" data-name="Path 155" class="cls-1" d="M318.4,222.068a1.527,1.527,0,0,0-1.968.889l-2.276,6.021-2.276-6.021a1.527,1.527,0,0,0-2.856,1.08l3.7,9.8a1.527,1.527,0,0,0,2.857,0l3.7-9.8A1.527,1.527,0,0,0,318.4,222.068Z" transform="translate(-308.926 -221.969)"/>
      </g>
    </g>
    <g id="Group_103" data-name="Group 103" transform="translate(79.364 173.944)">
      <g id="Group_102" data-name="Group 102">
        <path id="Path_156" data-name="Path 156" class="cls-1" d="M422.956,221.97h-1.215a1.527,1.527,0,0,0-1.527,1.527v9.8a1.527,1.527,0,0,0,1.527,1.527h1.215a6.033,6.033,0,0,0,6.027-6.027V228A6.033,6.033,0,0,0,422.956,221.97Zm2.973,6.827a2.977,2.977,0,0,1-2.661,2.957V225.04A2.977,2.977,0,0,1,425.929,228Z" transform="translate(-420.214 -221.97)"/>
      </g>
    </g>
    <g id="Group_105" data-name="Group 105" transform="translate(0 162.761)">
      <g id="Group_104" data-name="Group 104" transform="translate(0 0)">
        <path id="Path_157" data-name="Path 157" class="cls-1" d="M94.521,169.743l-.456-5.579a1.527,1.527,0,0,0-1.522-1.4H4.156a1.527,1.527,0,0,0-1.522,1.4L.005,196.329a1.527,1.527,0,0,0,1.522,1.651h9.162a1.527,1.527,0,1,0,0-3.054H3.183l2.38-29.112H91.136l.342,4.177a1.527,1.527,0,1,0,3.043-.249Z" transform="translate(0 -162.761)"/>
      </g>
    </g>
    <g id="Group_107" data-name="Group 107" transform="translate(14.251 172.806)">
      <g id="Group_106" data-name="Group 106" transform="translate(0 0)">
        <path id="Path_158" data-name="Path 158" class="cls-1" d="M157.9,239.469l-1.808-22.12a1.527,1.527,0,1,0-3.043.249l1.673,20.469H76.983a1.527,1.527,0,1,0,0,3.054h79.395a1.526,1.526,0,0,0,1.521-1.651Z" transform="translate(-75.456 -215.946)"/>
      </g>
    </g>
  </g>
</svg>
