<svg xmlns="http://www.w3.org/2000/svg" viewBox="0 0 36.629 36.884">
  <path id="Path_1" data-name="Path 1" d="M0,28.49V8.14A9.691,9.691,0,0,1,.763,5.6C2.544,2.035,5.342,0,9.412,0H27.218a8.361,8.361,0,0,1,4.324,1.017A9.473,9.473,0,0,1,36.629,8.9V27.981a9.038,9.038,0,0,1-.509,2.544,8.509,8.509,0,0,1-6.868,6.1c-.254,0-.763.254-1.017.254H7.886c-.509,0-1.017-.254-1.526-.254a8.509,8.509,0,0,1-6.1-6.868A11.017,11.017,0,0,0,0,28.49ZM25.946,18.315a7.631,7.631,0,1,0-7.631,7.631A7.5,7.5,0,0,0,25.946,18.315Zm4.579-9.92a2.289,2.289,0,1,0-2.289,2.289A2.28,2.28,0,0,0,30.525,8.394Z"/>
</svg>
