<svg xmlns="http://www.w3.org/2000/svg" viewBox="0 0 58.7 41.3">
  <path id="Path_41" data-name="Path 41" d="M49.2,41.3h9.5l-10.1-14,.7-.4a9.5,9.5,0,0,0,1.7-1c.5-.3,1-.7,1.5-1a12.667,12.667,0,0,0,1.3-1.1,5.241,5.241,0,0,0,1-1.1,11.457,11.457,0,0,0,1.6-2.2,4.671,4.671,0,0,0,.5-1c.1-.3.3-.7.4-1s.2-.6.3-1c.1-.3.1-.6.2-.9a16.2,16.2,0,0,0,.1-2.2,17.852,17.852,0,0,0-.2-2.3c0-.4-.1-.7-.1-1.1-.1-.5-.2-1-.3-1.4a6.468,6.468,0,0,0-.4-1.3,6.117,6.117,0,0,0-.5-1.2c-.2-.4-.4-.7-.6-1.1-.2-.3-.4-.6-.7-1a5.716,5.716,0,0,0-.7-.8,2.7,2.7,0,0,0-.8-.7,5.008,5.008,0,0,1-.8-.7c-.3-.2-.5-.4-.8-.6s-.5-.3-.8-.5c-.3-.1-.5-.3-.8-.4a6.89,6.89,0,0,0-.8-.3A1.421,1.421,0,0,1,49,.8c-.2-.1-.4-.1-.6-.2S48,.5,47.8.4c-.2,0-.3-.1-.5-.1-.1,0-.3-.1-.4-.1H25.1L25,19.3H16C8.9,19,8.3,14.2,8.3,8.1V0H0V8.1c0,9.061,2.332,14.527,7.815,17.207A19.842,19.842,0,0,0,16,26.9h9V41.3h7.4V26.9h7.2ZM32.5,7.4H44.8a5.734,5.734,0,0,1,5.6,6,5.611,5.611,0,0,1-5.4,6H32.5Z"/>
</svg>
