<svg xmlns="http://www.w3.org/2000/svg" viewBox="0 0 55.808 31.908">
  <path id="Path_2" data-name="Path 2" d="M55.712,28.869a.248.248,0,0,0-.253-.253,28.078,28.078,0,0,0-5.571-6.331h0l-2.279-2.279a2.583,2.583,0,0,1-.506-2.279,29.579,29.579,0,0,1,2.532-3.8A11.69,11.69,0,0,0,51.407,11.4c3.292-4.558,4.812-7.344,4.305-8.61v-.76c0-.253-.506-.253-1.013-.506a2.141,2.141,0,0,0-1.773,0H43.3l-.253.253c0,.253-.253.253-.253.506-1.013,2.279-2.026,4.558-3.039,6.584A15.761,15.761,0,0,1,37.732,11.9a14.047,14.047,0,0,1-1.519,2.026L35.2,14.941a.93.93,0,0,1-.76.253h-.506l-.76-.76a1.523,1.523,0,0,1-.253-1.013V2.279c0-.253-.253-.506-.253-1.013-.253-.253-.253-.506-.506-.76S31.655.253,31.148,0a24.4,24.4,0,0,1-4.305,0q-5.318,0-6.837.76c-.506.253-.76.506-1.266.76q-.38.76,0,.76c1.266.253,2.026.506,2.532,1.266l.253.253c.253.253.253.76.506,1.266a5.576,5.576,0,0,1,.253,2.026v3.545c0,1.013-.253,1.773-.253,2.279a1.934,1.934,0,0,1-.506,1.266c-.253.76-.506,1.013-.506,1.266l-.253.253h-.76c-.253,0-.506-.253-1.013-.506-.253-.253-.76-.506-1.013-1.013a14.047,14.047,0,0,1-1.519-2.026,18.888,18.888,0,0,0-1.773-3.039l-.253-.76a23.424,23.424,0,0,0-1.266-2.532A15.491,15.491,0,0,1,11.9,2.786c-.253-.253-.506-.76-.76-.76h-.253a.884.884,0,0,0-.506-.253c0-.253-.253-.253-.506-.253H2.026a3.66,3.66,0,0,0-1.773.506v.253A.248.248,0,0,0,0,2.532a.93.93,0,0,0,.253.76c1.266,2.786,2.532,5.318,3.8,7.85A55.992,55.992,0,0,0,7.6,17.22c1.013,1.519,2.026,3.039,3.039,4.305s1.773,2.279,2.026,2.532a13.156,13.156,0,0,1,.76,1.266l.76.76c.506.506,1.266,1.013,2.026,1.773,1.013.76,2.026,1.266,3.039,2.026a16.729,16.729,0,0,0,3.8,1.266,12.545,12.545,0,0,0,4.305.506h3.292a1.531,1.531,0,0,0,1.519-.76v-.253a.884.884,0,0,0,.253-.506v-.76a7.011,7.011,0,0,1,.253-2.279c.253-.76.253-1.266.506-1.519s.506-.506.506-.76c.253-.253.506-.253.506-.506h.253c.506-.253,1.013,0,1.519.506a11.7,11.7,0,0,1,1.773,1.773,16.384,16.384,0,0,0,2.026,2.279,11.068,11.068,0,0,0,2.026,1.773l.506.253,1.519.76a3.764,3.764,0,0,0,1.519.253h7.344a3.755,3.755,0,0,0,1.773-.253q.76-.38.76-.76V29.882c.506-.76.506-1.013.506-1.013Zm0,0"/>
</svg>
